<?xml version="1.0" standalone="no"?>
<!DOCTYPE svg PUBLIC "-//W3C//DTD SVG 20010904//EN"
 "http://www.w3.org/TR/2001/REC-SVG-20010904/DTD/svg10.dtd">
<svg version="1.0" xmlns="http://www.w3.org/2000/svg"
 width="3029.000000pt" height="2015.000000pt" viewBox="0 0 3029.000000 2015.000000"
 preserveAspectRatio="xMidYMid meet">

<g transform="translate(0.000000,2015.000000) scale(0.100000,-0.100000)"
fill="#000000" stroke="none">
<path d="M0 19330 l0 -810 217 0 c121 0 213 -4 208 -9 -6 -4 -41 -18 -80 -31
-38 -13 -104 -35 -145 -50 -41 -16 -103 -36 -137 -45 l-63 -18 0 -98 0 -99 33
0 c17 0 48 -5 67 -11 40 -13 210 -12 225 1 6 5 60 10 120 13 61 2 120 6 132
10 27 7 82 47 134 97 54 52 130 110 144 110 7 0 39 13 71 29 59 29 119 56 202
92 39 17 72 19 288 19 134 0 244 -3 243 -7 0 -5 -34 -34 -76 -65 -72 -54 -78
-57 -152 -63 -103 -9 -137 -21 -196 -68 -75 -61 -145 -134 -145 -151 0 -19 26
-21 33 -3 7 17 304 22 324 6 9 -8 146 -10 471 -6 426 4 461 6 512 25 30 11 67
23 83 26 l27 6 0 875 0 875 1650 0 c1460 0 1650 2 1650 15 0 8 5 15 11 15 6 0
9 -7 5 -15 -5 -13 694 -15 6249 -15 5553 0 6255 2 6255 15 0 8 5 15 11 15 6 0
9 -7 5 -15 -5 -13 506 -15 4559 -15 l4565 0 0 -886 c0 -643 3 -883 11 -878 6
3 90 6 186 6 128 0 178 -4 183 -13 7 -10 20 -10 67 0 42 9 82 10 144 3 78 -9
122 -6 203 14 25 6 28 4 23 -9 -6 -15 2 -16 61 -12 67 5 161 16 282 34 36 5
101 14 145 20 99 13 254 37 360 56 44 8 139 24 210 35 72 11 171 28 220 36 95
16 168 28 275 44 36 6 85 14 110 19 72 15 232 40 270 43 35 3 35 4 38 53 l3
51 -63 12 c-35 7 -79 17 -98 22 -19 5 -53 12 -75 15 -22 4 -60 11 -85 16 -25
6 -65 14 -90 19 -25 5 -65 14 -90 20 -25 6 -65 15 -90 20 -25 5 -67 14 -95 20
-74 15 -156 30 -195 36 -19 3 -44 9 -55 14 -11 5 -38 11 -60 14 -22 3 -60 10
-85 16 -61 15 -137 30 -185 37 -22 3 -44 9 -49 14 -6 5 -29 9 -52 9 -24 0 -46
5 -49 10 -3 6 -24 10 -45 10 -21 0 -42 5 -45 10 -3 6 -26 10 -50 10 -24 0 -47
5 -50 10 -3 5 -24 10 -45 10 -21 0 -42 5 -45 10 -3 5 -28 10 -55 10 -27 0 -52
5 -55 10 -3 5 -24 10 -45 10 -21 0 -42 5 -45 10 -3 5 -23 10 -43 10 -33 0 -83
18 -57 21 6 0 457 0 1003 -1 l992 -1 0 560 0 561 -72 0 c-69 0 -71 -1 -54 -19
16 -17 16 -18 -8 -14 -14 3 -31 11 -37 19 -10 12 -889 14 -5915 14 -4120 0
-5904 -3 -5904 -11 0 -11 -60 -39 -84 -39 -8 0 -28 11 -44 25 -18 15 -42 25
-60 25 -26 0 -31 -5 -37 -30 -4 -16 -4 -34 0 -40 10 -15 -19 -12 -41 5 -19 15
-19 16 4 31 12 9 22 20 22 25 0 5 -97 9 -217 9 -210 0 -216 0 -199 -19 16 -17
16 -18 -8 -14 -14 3 -31 11 -37 19 -10 12 -889 14 -5915 14 -4120 0 -5904 -3
-5904 -11 0 -11 -60 -39 -84 -39 -8 0 -28 11 -44 25 -18 15 -42 25 -60 25 -26
0 -31 -5 -37 -30 -4 -16 -4 -34 0 -40 10 -15 -19 -12 -41 5 -19 15 -19 16 4
31 12 9 22 20 22 25 0 5 -97 9 -217 9 -210 0 -216 0 -199 -19 16 -17 16 -18
-8 -14 -14 3 -31 11 -37 19 -10 12 -395 14 -2545 14 l-2534 0 0 -810z m9220
790 c0 -5 -2 -10 -4 -10 -3 0 -8 5 -11 10 -3 6 -1 10 4 10 6 0 11 -4 11 -10z
m12520 0 c0 -5 -2 -10 -4 -10 -3 0 -8 5 -11 10 -3 6 -1 10 4 10 6 0 11 -4 11
-10z m-16340 -2 c0 -2 -6 -20 -14 -41 -11 -33 -14 -36 -26 -23 -10 13 -9 20 4
41 13 20 37 35 36 23z m12520 0 c0 -2 -6 -20 -14 -41 -11 -33 -14 -36 -26 -23
-10 13 -9 20 4 41 13 20 37 35 36 23z m12360 -194 c0 -14 -31 -20 -43 -8 -3 3
-1 14 6 25 8 13 15 15 24 7 7 -6 13 -17 13 -24z m-184 -72 c-12 -13 -18 -13
-30 -2 -24 19 -19 27 15 22 28 -4 29 -6 15 -20z m181 12 c2 -7 -10 -17 -27
-22 -25 -9 -30 -16 -30 -42 0 -18 6 -33 15 -36 17 -7 21 -34 4 -34 -6 0 -17 7
-25 15 -9 8 -28 15 -44 15 -54 0 -72 -67 -29 -106 22 -20 25 -34 6 -34 -32 0
-52 40 -52 104 0 51 4 67 25 93 14 18 39 39 55 47 33 18 96 17 102 0z m-29102
-305 c11 -16 1 -19 -13 -3 -7 8 -8 14 -3 14 5 0 13 -5 16 -11z m-595 -288
c-25 -48 -2 -84 40 -61 29 16 35 7 15 -24 -16 -24 -16 -26 25 -70 55 -59 48
-79 -8 -24 -28 28 -52 42 -70 43 -19 0 -26 5 -24 17 1 9 -6 31 -17 49 -18 29
-18 35 -5 61 9 17 23 28 35 28 16 0 18 -3 9 -19z m215 -119 c-7 -7 -72 45 -94
77 -37 52 -8 42 46 -16 29 -31 51 -59 48 -61z"/>
<path d="M5695 20130 c8 -13 35 -13 55 0 11 7 5 10 -23 10 -23 0 -36 -4 -32
-10z"/>
<path d="M18215 20130 c8 -13 35 -13 55 0 11 7 5 10 -23 10 -23 0 -36 -4 -32
-10z"/>
<path d="M2570 17930 l0 -2020 12450 0 12450 0 0 2020 0 2020 -12450 0 -12450
0 0 -2020z m11750 1225 c0 -174 2 -207 15 -211 8 -4 15 -12 15 -20 0 -11 -19
-14 -85 -14 -66 0 -85 3 -85 14 0 8 7 16 15 20 13 4 15 35 15 191 0 156 -2
187 -15 191 -8 4 -15 12 -15 20 0 11 17 14 70 14 l70 0 0 -205z m1490 6 c0
-164 3 -202 15 -215 30 -29 17 -36 -70 -36 -83 0 -103 9 -67 29 15 8 17 30 20
167 4 175 -1 224 -23 224 -8 0 -15 7 -15 15 0 12 14 15 70 15 l70 0 0 -199z
m-2431 183 c30 -6 31 -9 31 -55 0 -48 -1 -49 -30 -49 -20 0 -33 6 -37 18 -33
93 -129 54 -153 -63 -16 -77 -5 -174 24 -217 25 -37 56 -47 76 -23 20 24 17
105 -3 120 -36 26 -18 35 73 35 87 0 109 -8 73 -29 -15 -8 -19 -26 -21 -94
l-4 -84 -113 -1 c-101 -2 -115 0 -146 21 -55 37 -73 79 -77 182 -3 83 -1 94
25 145 38 75 83 100 179 100 39 0 86 -3 103 -6z m1446 -19 c38 -19 55 -51 55
-106 0 -34 -7 -48 -35 -76 -36 -36 -36 -36 -17 -57 11 -12 32 -47 47 -79 14
-31 35 -62 46 -67 37 -20 19 -30 -55 -30 l-73 0 -33 73 c-57 129 -90 144 -90
42 0 -53 4 -68 20 -82 11 -10 20 -21 20 -25 0 -5 -40 -8 -90 -8 -70 0 -90 3
-90 14 0 8 7 16 15 20 13 4 15 34 15 181 0 147 -2 177 -15 181 -8 4 -15 12
-15 20 0 21 250 20 295 -1z m1525 -65 l0 -40 45 -2 c25 -1 53 -2 63 -2 12 -1
20 11 26 42 10 41 10 42 53 42 l43 0 0 -40 0 -40 45 0 c38 0 45 -3 45 -20 0
-17 -7 -20 -45 -20 l-45 0 0 -87 c0 -127 4 -135 53 -131 31 2 42 -1 44 -12 5
-24 -49 -50 -105 -50 -43 0 -54 4 -71 26 -18 23 -21 41 -21 140 l0 114 -65 0
-65 0 0 -103 c0 -114 7 -132 47 -114 19 8 27 7 39 -5 14 -14 13 -17 -14 -37
-40 -28 -120 -29 -153 -2 -22 18 -24 27 -27 140 -3 111 -5 121 -23 121 -25 0
-25 26 1 33 20 5 24 11 34 60 6 25 10 27 51 27 l45 0 0 -40z m-2600 -55 c33
-29 50 -77 50 -141 0 -113 -50 -164 -160 -164 -111 0 -160 49 -160 162 0 67
30 131 73 152 46 24 167 18 197 -9z m345 0 c24 -23 25 -31 25 -135 0 -98 2
-112 20 -127 11 -10 20 -21 20 -25 0 -5 -32 -8 -71 -8 -48 0 -68 3 -63 11 3 6
-8 4 -24 -5 -42 -22 -114 -21 -142 2 -34 28 -32 98 4 128 28 25 84 44 130 44
28 0 28 1 23 42 -7 49 -30 72 -58 57 -10 -5 -22 -21 -25 -34 -5 -21 -12 -25
-46 -25 -38 0 -39 1 -36 32 3 28 9 35 48 50 25 9 73 17 108 17 54 1 66 -3 87
-24z m1096 9 c81 -42 92 -209 19 -279 -28 -26 -39 -30 -103 -33 -83 -3 -111 8
-144 57 -18 27 -23 48 -23 98 0 123 45 173 158 173 38 0 75 -6 93 -16z m930 0
c35 -17 59 -67 59 -119 l0 -35 -95 0 -95 0 0 -26 c0 -36 17 -63 47 -75 20 -7
35 -5 69 12 36 19 46 20 59 9 14 -12 14 -15 -2 -32 -34 -38 -72 -50 -144 -46
-75 4 -102 20 -125 75 -17 39 -18 121 -3 160 13 34 47 72 74 83 34 14 124 11
156 -6z m800 0 c35 -17 59 -67 59 -119 l0 -35 -95 0 -95 0 0 -26 c0 -36 17
-63 47 -75 20 -7 35 -5 69 12 36 19 46 20 59 9 14 -12 14 -15 -2 -32 -34 -38
-72 -50 -144 -46 -75 4 -102 20 -125 75 -17 39 -18 121 -3 160 13 34 47 72 74
83 34 14 124 11 156 -6z m-1491 -108 c0 -63 3 -121 6 -130 8 -20 38 -21 58 0
23 22 23 202 1 210 -8 4 -15 12 -15 20 0 11 16 14 65 14 l65 0 0 -117 c0 -130
6 -163 26 -163 8 0 14 -7 14 -15 0 -12 -14 -15 -70 -15 -43 0 -70 4 -70 11 0
5 -10 3 -22 -5 -25 -18 -100 -21 -128 -6 -28 15 -40 65 -40 172 0 78 -3 100
-15 104 -8 4 -15 12 -15 20 0 11 17 14 70 14 l70 0 0 -114z m-4020 -1731 c0
-2 -11 -15 -25 -29 -32 -32 -32 -44 3 -48 53 -6 37 -78 -17 -78 -38 0 -51 17
-51 66 0 35 5 47 31 68 27 23 59 34 59 21z m97 -20 c-31 -30 -35 -55 -8 -55
30 0 46 -26 33 -55 -22 -48 -102 -22 -102 32 0 48 45 102 85 103 18 0 17 -3
-8 -25z m2175 8 c24 -29 -3 -48 -71 -50 -56 -2 -63 0 -71 20 -7 18 -9 13 -9
-25 -1 -36 3 -48 14 -48 8 0 15 -4 15 -10 0 -5 -7 -10 -15 -10 -24 0 -22 -158
3 -176 15 -12 6 -13 -58 -13 -64 0 -73 1 -57 13 24 18 26 176 2 176 -8 0 -15
5 -15 10 0 6 7 10 15 10 11 0 15 11 15 35 0 25 8 44 24 60 22 22 32 24 110 24
62 -1 89 -5 98 -16z m1333 -18 c0 -28 -3 -30 -35 -30 -26 0 -36 5 -38 18 -7
34 6 48 40 45 29 -3 33 -6 33 -33z m2986 19 c22 -27 14 -83 -17 -115 -15 -16
-37 -29 -48 -29 -18 0 -18 2 7 28 31 33 35 52 9 52 -22 0 -42 19 -42 40 0 38
65 56 91 24z m117 4 c7 -7 12 -29 12 -51 0 -29 -7 -46 -29 -68 -16 -16 -37
-29 -45 -29 -20 0 -21 16 -1 24 9 3 19 16 24 28 7 20 5 24 -18 28 -26 5 -39
35 -27 66 7 17 67 19 84 2z m-6258 -43 c0 -33 -4 -45 -15 -45 -8 0 -15 5 -15
10 0 17 -47 60 -65 60 -13 0 -15 -20 -15 -139 l0 -139 28 -10 c21 -8 6 -11
-73 -11 -87 -1 -97 1 -75 12 25 12 25 15 28 150 2 112 0 137 -11 137 -20 0
-67 -39 -67 -56 0 -8 -7 -14 -15 -14 -11 0 -15 12 -15 45 l0 45 155 0 155 0 0
-45z m120 -9 l0 -54 43 5 c66 8 77 -9 77 -113 0 -49 4 -84 10 -84 6 0 10 -4
10 -10 0 -6 -49 -10 -127 -10 -122 0 -126 1 -110 18 14 15 17 41 17 142 0 101
-3 127 -17 142 -15 17 -14 18 40 18 l57 0 0 -54z m590 0 l0 -54 45 6 c38 4 50
1 70 -18 48 -45 42 -148 -11 -189 -22 -17 -39 -20 -105 -19 l-79 2 0 151 c0
104 -4 155 -12 163 -9 9 0 12 40 12 l52 0 0 -54z m1490 0 l0 -54 43 5 c66 8
77 -9 77 -113 0 -49 4 -84 10 -84 6 0 10 -4 10 -10 0 -6 -49 -10 -127 -10
-122 0 -126 1 -110 18 14 15 17 41 17 142 0 101 -3 127 -17 142 -15 17 -14 18
40 18 l57 0 0 -54z m-820 -16 c0 -36 3 -40 25 -40 14 0 25 -4 25 -10 0 -5 -11
-10 -25 -10 -25 0 -25 -1 -25 -81 l0 -81 25 6 c14 4 25 2 25 -3 0 -20 -33 -41
-65 -41 -54 0 -65 19 -65 116 0 71 -2 84 -16 84 -12 0 -4 15 27 49 55 61 69
63 69 11z m1080 0 c0 -36 3 -40 25 -40 14 0 25 -4 25 -10 0 -5 -11 -10 -25
-10 -25 0 -25 -1 -25 -81 l0 -81 25 6 c14 4 25 2 25 -3 0 -20 -33 -41 -65 -41
-54 0 -65 19 -65 116 0 71 -2 84 -16 84 -12 0 -4 15 27 49 55 61 69 63 69 11z
m-2012 -53 c12 -13 25 -37 28 -55 l7 -32 -62 0 c-66 0 -70 -4 -46 -49 19 -38
41 -45 65 -21 11 11 25 20 30 20 17 0 11 -20 -15 -45 -34 -35 -106 -35 -140
-1 -47 47 -41 144 12 186 36 28 93 27 121 -3z m600 0 c12 -13 25 -37 28 -55
l7 -32 -62 0 c-66 0 -70 -4 -46 -49 19 -38 41 -45 65 -21 11 11 25 20 30 20
17 0 11 -20 -15 -45 -34 -35 -106 -35 -140 -1 -47 47 -41 144 12 186 36 28 93
27 121 -3z m202 -17 c0 -44 -23 -57 -35 -20 -8 26 -41 44 -51 28 -4 -6 3 -19
17 -30 69 -55 79 -67 79 -97 0 -50 -30 -71 -100 -71 l-60 0 0 40 c0 46 11 51
34 15 18 -27 56 -34 56 -11 0 7 -20 30 -45 50 -36 30 -45 44 -45 68 0 50 24
68 92 68 l58 0 0 -40z m769 34 c33 -4 61 -11 61 -15 0 -5 -6 -9 -14 -9 -11 0
-13 -10 -9 -38 7 -54 -20 -84 -83 -91 -34 -4 -49 -10 -49 -21 0 -11 16 -16 65
-20 78 -6 90 -13 90 -48 0 -53 -33 -72 -123 -72 -50 0 -70 5 -88 20 -22 18
-23 21 -7 33 11 9 14 18 7 28 -14 23 -10 48 10 66 20 16 19 17 -5 46 -32 38
-30 62 5 98 31 31 43 33 140 23z m669 -17 c12 -13 25 -37 28 -55 l7 -32 -62 0
c-66 0 -70 -4 -46 -49 19 -38 41 -45 65 -21 11 11 25 20 30 20 17 0 11 -20
-15 -45 -34 -35 -106 -35 -140 -1 -47 47 -41 144 12 186 36 28 93 27 121 -3z
m247 4 c3 -10 3 -26 -1 -35 -7 -18 -49 -22 -60 -4 -14 22 -34 -25 -34 -80 0
-40 5 -58 18 -68 15 -12 6 -13 -58 -13 -64 0 -73 1 -57 13 14 11 17 29 17 91
0 62 -4 81 -17 91 -16 12 -9 14 50 12 37 0 70 2 74 5 14 15 62 7 68 -12z m405
-5 c0 -13 3 -31 6 -40 11 -28 -21 -18 -45 15 -17 23 -26 28 -34 20 -8 -8 3
-24 41 -59 53 -50 60 -67 41 -105 -17 -32 -28 -37 -91 -37 -49 0 -58 3 -58 18
0 9 -3 27 -6 40 -9 32 12 28 47 -9 28 -30 49 -32 49 -4 0 8 -18 26 -39 42 -94
67 -76 143 34 143 52 0 55 -2 55 -24z m370 9 c6 -8 14 -52 17 -97 3 -46 10
-89 16 -95 7 -10 -18 -13 -119 -13 -100 0 -125 3 -116 12 16 16 16 170 0 187
-11 10 -2 12 44 10 32 -1 61 0 65 4 12 13 80 7 93 -8z m205 9 c19 -8 45 -55
45 -84 0 -18 -6 -20 -59 -20 -56 0 -59 -1 -54 -22 13 -51 57 -74 83 -43 7 8
16 15 21 15 16 0 10 -23 -13 -47 -16 -17 -32 -23 -64 -23 -23 0 -50 3 -59 6
-26 10 -45 59 -45 114 0 44 5 56 29 81 29 29 76 38 116 23z m472 -16 c12 -13
24 -38 28 -55 l7 -33 -61 0 c-34 0 -61 -4 -61 -9 0 -24 21 -61 39 -71 17 -9
24 -7 38 10 18 20 43 27 43 11 0 -4 -11 -20 -25 -35 -33 -36 -101 -37 -142 -2
-25 22 -28 31 -28 84 0 53 4 64 29 91 38 40 101 44 133 9z m243 -13 c0 -30 -3
-35 -23 -35 -13 0 -29 6 -35 12 -10 10 -15 10 -22 -2 -13 -20 -13 -140 0 -140
6 0 10 -4 10 -10 0 -6 -29 -10 -67 -10 -52 0 -64 3 -55 12 16 16 16 170 0 186
-9 9 0 12 40 12 34 0 52 -4 52 -12 0 -8 6 -6 17 5 10 9 32 17 50 17 31 0 33
-2 33 -35z m305 21 c15 -11 19 -30 23 -100 2 -47 9 -86 14 -86 6 0 5 -7 -2
-15 -15 -18 -71 -20 -88 -3 -8 8 -15 8 -26 -1 -20 -16 -76 -10 -89 10 -19 31
1 67 53 96 40 22 50 33 50 54 0 30 -7 40 -24 33 -8 -3 -11 -17 -8 -34 4 -28 2
-30 -26 -30 -55 0 -64 50 -14 79 25 15 115 13 137 -3z m275 -5 c5 -11 10 -56
10 -100 0 -47 4 -81 10 -81 6 0 10 -4 10 -10 0 -6 -47 -10 -120 -10 -73 0
-120 4 -120 10 0 6 5 10 10 10 6 0 10 35 10 85 0 50 -4 85 -10 85 -5 0 -10 5
-10 11 0 6 21 9 55 8 30 -1 58 0 62 4 3 4 23 7 44 7 28 0 41 -5 49 -19z m219
13 c33 -4 61 -11 61 -15 0 -5 -9 -9 -20 -9 -17 0 -18 -3 -8 -25 8 -18 8 -31
-1 -53 -14 -34 -42 -50 -91 -54 -23 -2 -35 -8 -35 -18 0 -11 16 -16 68 -20 71
-5 87 -15 87 -57 0 -40 -44 -63 -124 -63 -83 0 -118 17 -100 47 6 10 9 35 6
55 -3 29 0 39 16 49 20 13 20 13 -4 36 -32 30 -32 76 1 108 26 27 44 29 144
19z m359 -4 c48 0 51 -1 41 -18 -9 -14 -7 -26 8 -56 l20 -39 17 43 c16 40 16
43 -1 56 -16 12 -12 13 31 14 46 0 48 -1 33 -17 -8 -10 -36 -69 -61 -132 -59
-148 -68 -161 -110 -161 -62 0 -79 62 -19 68 24 2 32 -1 35 -15 4 -15 7 -13
18 9 12 26 10 35 -25 114 -21 47 -47 96 -56 108 l-18 21 -1 -27 c0 -22 -5 -28
-23 -28 -13 0 -29 6 -35 12 -10 10 -15 10 -22 -2 -13 -20 -13 -140 0 -140 6 0
10 -4 10 -10 0 -6 -29 -10 -67 -10 -52 0 -64 3 -55 12 16 16 16 170 0 186 -9
9 0 12 40 12 34 0 52 -4 52 -12 0 -7 7 -5 18 6 14 14 27 17 67 12 28 -3 74 -6
103 -6z m-3968 -87 c0 -66 4 -91 17 -105 15 -17 13 -18 -58 -18 -55 1 -70 3
-56 11 14 8 17 25 17 94 0 69 -3 86 -17 94 -14 8 -4 10 40 11 l57 0 0 -87z
m1340 -4 c0 -76 3 -94 18 -105 15 -12 6 -13 -58 -13 -64 0 -73 1 -57 13 14 11
17 29 17 91 0 62 -3 80 -17 91 -16 12 -10 13 40 14 l57 0 0 -91z m929 74 c-8
-14 -6 -28 7 -58 l17 -40 19 45 c18 42 18 45 2 57 -15 11 -11 13 30 13 44 0
47 -2 35 -16 -8 -9 -32 -57 -55 -108 -53 -119 -63 -119 -115 -1 -22 49 -47 97
-56 107 -15 17 -12 18 56 18 65 0 70 -1 60 -17z m2801 -78 c0 -13 -34 -15
-250 -15 -216 0 -250 2 -250 15 0 13 34 15 250 15 216 0 250 -2 250 -15z
m-875 -85 c0 -31 -3 -35 -28 -38 -32 -4 -57 13 -57 37 0 27 22 42 55 39 27 -3
30 -6 30 -38z m-3540 -272 c-11 -6 -23 -16 -27 -22 -12 -17 -9 -225 2 -247 22
-39 102 -17 127 36 19 40 49 49 39 13 -3 -13 -6 -38 -6 -55 l0 -33 -152 1
c-118 0 -148 3 -130 11 21 11 22 16 22 148 0 132 -1 137 -22 148 -18 8 -4 11
72 11 76 0 91 -2 75 -11z m1055 -33 c0 -50 -23 -64 -34 -20 -6 23 -39 45 -67
45 -6 0 -8 -54 -7 -137 3 -135 3 -138 28 -150 22 -11 12 -13 -75 -12 -79 0
-94 3 -72 11 l27 10 0 139 c0 119 -2 139 -15 139 -18 0 -65 -43 -65 -60 0 -5
-7 -10 -15 -10 -11 0 -15 12 -15 45 l0 45 155 0 155 0 0 -45z m-715 -69 c15
-11 19 -30 23 -100 2 -47 9 -86 14 -86 6 0 5 -7 -2 -15 -15 -18 -71 -20 -88
-3 -8 8 -15 8 -26 -1 -20 -16 -76 -10 -89 10 -19 31 1 67 53 96 40 22 50 33
50 54 0 30 -7 40 -24 33 -8 -3 -11 -17 -8 -34 4 -28 2 -30 -26 -30 -55 0 -64
50 -14 79 25 15 115 13 137 -3z m238 -7 c52 -40 55 -133 5 -186 -17 -18 -32
-23 -71 -23 -40 0 -53 5 -78 29 -25 26 -29 37 -29 86 0 49 4 60 29 86 37 37
104 41 144 8z m687 1 c0 -6 -23 -47 -51 -91 -28 -45 -49 -82 -47 -84 9 -9 60
10 69 26 15 30 29 22 29 -16 l0 -35 -106 0 c-58 0 -103 3 -101 8 2 4 26 44 52
90 26 46 45 85 43 87 -10 10 -48 -9 -53 -26 -10 -31 -25 -22 -25 16 l0 35 95
0 c57 0 95 -4 95 -10z m122 -77 c2 -70 6 -88 18 -88 19 0 27 139 9 161 -10 12
-3 14 40 14 l51 0 0 -83 c0 -56 5 -89 15 -103 14 -21 13 -21 -83 -28 -124 -9
-132 -2 -132 113 0 47 -5 82 -12 89 -9 9 -1 12 40 12 l51 0 3 -87z"/>
<path d="M14670 19214 l0 -86 33 7 c58 12 85 72 56 128 -16 29 -28 37 -61 37
l-28 0 0 -86z"/>
<path d="M13609 19174 c-21 -26 -24 -152 -5 -198 12 -30 20 -37 38 -34 33 4
48 43 48 123 0 39 -6 81 -13 95 -15 30 -49 37 -68 14z"/>
<path d="M13956 19031 c-24 -27 -18 -75 11 -79 26 -4 53 31 53 70 0 23 -4 28
-23 28 -13 0 -32 -9 -41 -19z"/>
<path d="M15083 19192 c-22 -15 -33 -54 -33 -124 0 -82 15 -122 48 -126 43 -6
67 108 42 200 -11 39 -38 62 -57 50z"/>
<path d="M16016 19182 c-9 -11 -20 -36 -23 -56 l-6 -36 46 0 46 0 -6 38 c-3
20 -13 45 -22 55 -17 17 -18 17 -35 -1z"/>
<path d="M16816 19182 c-9 -11 -20 -36 -23 -56 l-6 -36 46 0 46 0 -6 38 c-3
20 -13 45 -22 55 -17 17 -18 17 -35 -1z"/>
<path d="M11984 17217 c-3 -8 -4 -45 -2 -83 2 -53 6 -69 18 -69 12 0 16 17 18
83 2 69 0 82 -13 82 -9 0 -18 -6 -21 -13z"/>
<path d="M12587 17229 c-24 -14 -25 -130 0 -154 16 -16 17 -16 30 1 17 23 17
138 0 152 -8 7 -18 7 -30 1z"/>
<path d="M14064 17217 c-3 -8 -4 -45 -2 -83 2 -53 6 -69 18 -69 12 0 16 17 18
83 2 69 0 82 -13 82 -9 0 -18 -6 -21 -13z"/>
<path d="M12226 17224 c-12 -31 -6 -44 19 -44 27 0 28 3 19 38 -7 25 -29 29
-38 6z"/>
<path d="M12826 17224 c-12 -31 -6 -44 19 -44 27 0 28 3 19 38 -7 25 -29 29
-38 6z"/>
<path d="M13801 17218 c-13 -34 -2 -80 18 -76 12 2 16 15 16 47 0 50 -20 66
-34 29z"/>
<path d="M13780 17000 c-11 -7 -9 -11 13 -19 35 -14 39 -14 74 0 26 10 27 12
8 19 -27 12 -77 12 -95 0z"/>
<path d="M14466 17224 c-12 -31 -6 -44 19 -44 27 0 28 3 19 38 -7 25 -29 29
-38 6z"/>
<path d="M15470 17211 c-15 -29 -13 -126 3 -140 22 -18 27 -2 27 81 0 77 -10
96 -30 59z"/>
<path d="M15711 17221 c-17 -31 -13 -41 15 -41 22 0 25 4 22 27 -4 33 -23 41
-37 14z"/>
<path d="M16171 17231 c-18 -32 -13 -51 12 -51 20 0 23 4 19 30 -5 38 -18 46
-31 21z"/>
<path d="M16713 17131 c-16 -25 -17 -51 -3 -51 14 0 22 23 18 50 -3 21 -3 21
-15 1z"/>
<path d="M16972 17218 c-18 -18 -16 -144 2 -151 23 -9 26 2 26 85 0 77 -5 89
-28 66z"/>
<path d="M17204 17216 c-9 -39 3 -78 24 -74 13 3 17 14 17 48 0 34 -4 45 -17
48 -12 2 -19 -5 -24 -22z"/>
<path d="M17190 17000 c-22 -14 -5 -23 43 -23 53 0 80 13 51 24 -27 11 -76 10
-94 -1z"/>
<path d="M14593 16581 c-16 -25 -17 -51 -3 -51 14 0 22 23 18 50 -3 21 -3 21
-15 1z"/>
<path d="M14832 16688 c-7 -7 -12 -42 -12 -83 0 -75 13 -104 37 -84 9 8 13 36
13 84 0 76 -14 107 -38 83z"/>
<path d="M30129 18061 c-133 -44 -157 -55 -257 -125 -61 -42 -150 -95 -199
-119 l-88 -42 -405 -5 -405 -5 -172 -80 c-94 -43 -169 -83 -167 -87 3 -4 421
-8 930 -8 l924 0 0 260 c0 143 -3 260 -7 259 -5 0 -74 -22 -154 -48z"/>
<path d="M0 7360 l0 -7360 15145 0 15145 0 0 7360 0 7360 -15145 0 -15145 0 0
-7360z m15840 5649 l0 -90 22 15 c23 17 85 21 104 8 25 -16 34 -55 34 -141 0
-82 2 -91 22 -105 21 -15 18 -16 -57 -15 -65 0 -76 2 -58 11 29 14 38 63 27
147 -10 73 -25 86 -69 57 -23 -15 -25 -22 -25 -100 0 -75 2 -85 23 -99 21 -15
18 -16 -52 -16 l-75 -1 22 20 c21 20 22 29 22 168 0 171 -4 192 -31 185 -10
-3 -19 0 -19 6 0 13 56 39 88 40 21 1 22 -2 22 -90z m315 61 c0 -21 -5 -26
-31 -28 -21 -2 -33 2 -37 12 -12 29 4 47 37 44 26 -2 31 -7 31 -28z m-2788 -6
c-31 -17 -32 -14 32 -115 l37 -58 42 68 c48 78 51 94 20 109 -19 9 -7 11 62
11 l85 1 -33 -20 c-19 -12 -57 -58 -92 -113 -59 -92 -60 -92 -60 -168 0 -73 1
-75 28 -86 22 -9 11 -11 -68 -12 -90 0 -93 1 -67 15 25 14 27 19 27 82 0 67
-1 69 -70 175 -38 59 -76 107 -84 107 -8 0 -18 5 -21 10 -4 6 29 10 92 10 93
-1 97 -2 70 -16z m1341 -47 c3 -65 -7 -72 -37 -24 -47 77 -152 84 -205 14 -98
-129 -1 -334 139 -296 l35 10 0 74 c0 71 -1 75 -27 89 -27 14 -23 15 62 15 72
0 85 -3 68 -11 -21 -10 -23 -18 -23 -95 0 -82 -1 -84 -27 -95 -49 -20 -179
-22 -228 -3 -53 20 -100 70 -116 124 -26 87 22 199 102 240 39 19 56 21 149
18 l105 -4 3 -56z m1016 32 c3 -17 6 -38 6 -45 0 -24 -24 -15 -42 16 -15 26
-23 30 -58 30 l-40 0 0 -170 0 -169 28 -15 c25 -14 22 -15 -68 -15 -73 0 -89
3 -69 10 15 6 30 20 33 32 3 12 6 91 6 175 l0 152 -39 0 c-41 0 -71 -20 -71
-46 0 -8 -7 -14 -15 -14 -11 0 -15 12 -15 45 l0 45 169 0 169 0 6 -31z m845
13 c6 -12 5 -57 -5 -133 -7 -63 -14 -120 -14 -126 0 -20 -30 -15 -30 5 -1 9
-7 67 -14 127 -8 68 -10 117 -4 128 11 22 55 22 67 -1z m200 0 c6 -12 5 -57
-5 -133 -7 -63 -14 -120 -14 -126 0 -20 -30 -15 -30 5 -1 9 -7 67 -14 127 -8
68 -10 117 -4 128 11 22 55 22 67 -1z m-1599 -67 c0 -43 1 -45 30 -45 17 0 30
-4 30 -10 0 -5 -13 -10 -30 -10 l-30 0 0 -99 c0 -101 8 -123 35 -101 27 22 37
5 15 -23 -18 -23 -29 -28 -58 -25 -51 4 -62 31 -62 151 0 92 -1 97 -21 97 -19
0 -17 5 20 45 22 24 41 49 41 55 0 5 7 10 15 10 11 0 15 -12 15 -45z m-1344
-81 c45 -47 50 -120 13 -180 -24 -39 -57 -54 -120 -54 -44 0 -55 4 -84 33 -59
59 -57 159 6 211 25 22 41 26 91 26 57 0 63 -2 94 -36z m154 -60 c0 -132 17
-158 74 -113 24 19 26 27 26 92 0 77 -4 87 -35 105 -17 10 -11 11 37 12 l57 0
3 -112 c3 -101 5 -113 21 -110 31 5 18 -24 -16 -36 -50 -18 -67 -15 -67 10 l0
21 -23 -21 c-16 -15 -36 -22 -65 -22 -61 0 -72 22 -72 142 0 96 0 98 -27 112
-28 15 -27 15 30 16 l57 0 0 -96z m1024 65 c61 -53 61 -146 1 -206 -30 -30
-39 -33 -92 -33 -91 0 -133 43 -133 137 0 86 47 132 137 133 44 0 58 -5 87
-31z m1146 -84 c0 -105 2 -116 22 -135 l22 -20 -73 0 c-71 0 -73 0 -52 18 20
16 22 25 19 112 -3 84 -5 95 -20 92 -10 -2 -18 3 -18 11 0 14 42 34 78 36 22
1 22 -1 22 -114z m250 69 c0 -32 -4 -44 -15 -44 -8 0 -15 6 -15 14 0 14 -45
56 -59 56 -4 0 -15 -6 -25 -13 -28 -20 -6 -52 49 -73 81 -31 108 -92 60 -139
-21 -22 -33 -25 -100 -25 l-75 0 0 45 c0 48 23 64 35 25 9 -30 60 -53 85 -40
36 19 24 48 -30 75 -91 46 -111 86 -69 139 19 24 26 26 90 25 l69 -2 0 -43z
m165 -189 c0 -26 -4 -30 -31 -33 -36 -4 -50 18 -33 49 7 14 19 19 37 17 23 -2
27 -8 27 -33z m200 0 c0 -26 -4 -30 -31 -33 -36 -4 -50 18 -33 49 7 14 19 19
37 17 23 -2 27 -8 27 -33z m11225 -5975 l0 -4730 -7425 0 -7425 0 0 4730 0
4730 7425 0 7425 0 0 -4730z m-15320 0 l0 -2280 -5310 0 -5310 0 0 2280 0
2280 5310 0 5310 0 0 -2280z m345 -5758 c60 -35 88 -82 93 -158 3 -50 0 -72
-18 -109 -24 -50 -75 -91 -126 -101 l-31 -6 48 -45 c27 -25 74 -86 105 -137
31 -50 64 -101 72 -113 l14 -23 -93 0 -94 0 -78 119 c-99 151 -119 170 -185
178 l-52 6 0 -152 0 -151 -75 0 -75 0 0 361 0 360 228 -3 c216 -3 229 -4 267
-26z m1595 -332 l0 -360 -75 0 -75 0 0 360 0 360 75 0 75 0 0 -360z m2080 253
c0 -60 -7 -171 -15 -248 -8 -77 -15 -148 -15 -157 0 -15 -9 -18 -45 -18 -29 0
-45 4 -45 13 0 6 -7 75 -15 152 -8 77 -15 191 -15 253 l0 112 75 0 75 0 0
-107z m-1240 -3 l0 -90 45 0 45 0 0 -55 0 -55 -45 0 -45 0 0 -144 c0 -158 5
-173 55 -160 34 8 45 -7 45 -62 0 -38 -2 -42 -31 -48 -89 -17 -176 2 -200 46
-9 16 -15 78 -17 196 l-4 172 -29 0 c-28 0 -29 1 -29 55 0 54 0 55 29 55 29 0
30 2 33 52 l3 52 65 38 c36 21 68 38 73 38 4 0 7 -40 7 -90z m330 0 l0 -90 45
0 45 0 0 -55 0 -55 -45 0 -45 0 0 -144 c0 -159 1 -161 60 -161 l35 0 3 -51 c3
-46 1 -52 -20 -58 -43 -11 -130 -6 -163 9 -51 25 -58 52 -63 238 l-4 167 -29
0 c-28 0 -29 1 -29 55 0 54 0 55 30 55 29 0 30 1 30 50 l0 49 68 40 c37 22 70
40 75 41 4 0 7 -40 7 -90z m-2208 -92 c50 -15 122 -78 151 -132 31 -59 31
-193 0 -252 -52 -98 -148 -150 -265 -142 -162 11 -248 106 -248 272 1 117 48
196 145 242 57 27 150 32 217 12z m1504 -23 c63 -39 104 -115 112 -210 l5 -65
-172 0 -171 0 0 -25 c0 -14 13 -39 29 -57 24 -27 36 -33 71 -33 36 0 47 6 70
33 27 33 28 33 89 26 34 -4 64 -11 67 -15 10 -17 -41 -93 -83 -123 -34 -24
-55 -30 -115 -34 -90 -5 -147 9 -194 50 -55 48 -77 101 -82 194 -7 133 37 226
130 273 35 18 57 21 119 19 63 -3 84 -8 125 -33z m1175 25 c90 -25 159 -131
159 -245 l0 -55 -171 0 -171 0 7 -27 c11 -45 32 -70 70 -83 45 -15 87 0 104
37 11 24 14 25 69 19 96 -12 95 -11 73 -54 -42 -81 -113 -122 -212 -122 -78 0
-128 15 -173 51 -96 80 -114 270 -36 392 51 81 170 118 281 87z m-2251 -184
c0 -204 5 -220 65 -232 37 -7 96 30 106 66 4 14 7 98 8 188 l1 162 75 0 75 0
0 -260 0 -260 -70 0 -70 0 0 31 0 31 -30 -25 c-41 -35 -93 -50 -157 -45 -57 5
-92 25 -127 72 -19 25 -21 44 -24 242 l-3 214 75 0 76 0 0 -184z m3160 -158
c11 -19 20 -51 20 -73 0 -22 -9 -54 -20 -72 -16 -27 -26 -33 -53 -33 -52 0
-72 29 -72 105 0 76 20 105 72 105 27 0 37 -6 53 -32z m160 0 c11 -19 20 -51
20 -73 0 -22 -9 -54 -20 -72 -16 -27 -26 -33 -53 -33 -52 0 -72 29 -72 105 0
76 20 105 72 105 27 0 37 -6 53 -32z m240 10 c11 -12 20 -30 20 -39 0 -10 5
-21 10 -24 6 -3 10 2 10 13 0 33 38 72 70 72 73 0 106 -128 48 -189 -39 -43
-118 -8 -118 51 0 11 -4 16 -10 13 -5 -3 -10 -14 -10 -24 0 -27 -38 -61 -69
-61 -72 0 -102 128 -45 191 23 26 68 24 94 -3z m-870 -118 l0 -70 -75 0 -75 0
0 70 0 70 75 0 75 0 0 -70z m720 50 c0 -23 -35 -28 -43 -6 -7 18 1 26 25 26
11 0 18 -7 18 -20z m0 -100 c0 -13 -7 -20 -18 -20 -24 0 -32 8 -25 26 8 22 43
17 43 -6z"/>
<path d="M13680 12905 c-34 -41 -19 -149 26 -184 74 -58 121 81 60 174 -19 29
-66 34 -86 10z"/>
<path d="M14876 12909 c-23 -18 -26 -28 -26 -77 0 -100 56 -157 106 -107 44
44 23 168 -32 194 -18 8 -28 6 -48 -10z"/>
<path d="M17688 10898 c17 -17 17 -239 0 -256 -9 -9 -1 -12 36 -12 41 0 47 2
37 14 -7 9 -11 41 -9 83 3 63 5 68 27 71 13 2 28 -2 32 -10 12 -18 11 -115 -1
-139 -10 -17 -7 -19 30 -19 37 0 40 2 30 19 -5 11 -10 52 -10 91 0 64 -2 71
-24 81 -18 9 -30 7 -55 -5 l-31 -17 0 56 0 55 -37 0 c-29 0 -34 -3 -25 -12z"/>
<path d="M18820 10885 c0 -18 5 -25 20 -25 15 0 20 7 20 25 0 18 -5 25 -20 25
-15 0 -20 -7 -20 -25z"/>
<path d="M19110 10900 c19 -12 28 -217 11 -249 -11 -20 -9 -21 31 -21 33 0 39
3 30 12 -7 7 -12 27 -12 45 0 25 4 33 18 33 19 0 52 -47 52 -74 0 -12 10 -16
39 -16 l40 0 -41 60 -42 60 39 40 39 40 -47 0 c-44 0 -46 -1 -35 -19 9 -15 8
-24 -5 -45 -10 -14 -26 -26 -37 -26 -18 0 -20 7 -20 85 l0 85 -37 0 c-28 0
-34 -3 -23 -10z"/>
<path d="M21480 10901 c-25 -7 -80 -91 -60 -91 15 0 12 -154 -2 -168 -9 -9 -1
-12 37 -12 38 0 46 3 37 12 -7 7 -12 43 -12 90 0 63 3 78 15 78 8 0 15 5 15
10 0 6 -7 10 -15 10 -10 0 -15 10 -15 30 0 23 4 30 20 30 11 0 20 -4 20 -10 0
-5 5 -10 10 -10 6 0 10 9 10 20 0 21 -14 24 -60 11z"/>
<path d="M23638 10898 c8 -8 12 -51 12 -128 0 -77 -4 -120 -12 -128 -9 -9 -2
-12 31 -12 38 0 42 2 35 18 -5 9 -10 72 -12 140 l-3 122 -32 0 c-24 0 -28 -3
-19 -12z"/>
<path d="M17420 10865 c0 -41 12 -45 28 -10 8 17 20 25 37 25 l25 0 0 -113 c0
-75 -4 -117 -12 -125 -9 -9 -1 -12 37 -12 38 0 46 3 37 12 -8 8 -12 50 -12
125 l0 113 25 0 c18 0 28 -7 35 -25 13 -35 20 -31 20 10 l0 35 -110 0 -110 0
0 -35z"/>
<path d="M20160 10863 c0 -9 -7 -25 -17 -35 -9 -11 -11 -18 -5 -18 8 0 12 -24
12 -70 0 -57 4 -74 20 -90 23 -23 30 -24 66 -8 l28 13 -30 5 c-29 5 -29 6 -32
78 -3 71 -3 72 23 72 14 0 25 5 25 10 0 6 -11 10 -25 10 -20 0 -25 5 -25 25 0
18 -5 25 -20 25 -12 0 -20 -7 -20 -17z"/>
<path d="M17974 10816 c-55 -24 -68 -121 -22 -163 29 -26 92 -23 120 5 12 12
17 22 11 22 -7 0 -15 -4 -18 -10 -11 -18 -73 -12 -85 9 -22 42 -14 51 50 51
57 0 60 1 60 24 0 54 -60 87 -116 62z m66 -32 c14 -35 15 -34 -30 -34 -41 0
-47 8 -30 41 15 28 49 24 60 -7z"/>
<path d="M18138 10818 c7 -7 12 -42 12 -88 0 -46 -5 -81 -12 -88 -9 -9 -1 -12
36 -12 41 0 47 2 37 14 -18 22 -10 136 10 149 35 22 49 2 49 -71 0 -39 -5 -73
-12 -80 -9 -9 -1 -12 37 -12 38 0 46 3 37 12 -7 7 -12 33 -12 59 0 74 -10 110
-36 121 -18 8 -29 7 -48 -6 -31 -20 -36 -20 -36 -1 0 11 -11 15 -37 15 -29 0
-34 -3 -25 -12z"/>
<path d="M18558 10821 c10 -6 12 -39 10 -139 l-3 -132 40 0 c30 0 36 3 27 12
-7 7 -12 26 -12 43 0 29 2 30 41 30 33 0 46 6 65 28 34 39 33 108 -1 142 -28
29 -43 31 -71 10 -25 -19 -34 -19 -34 0 0 11 -11 15 -37 15 -24 0 -33 -3 -25
-9z m132 -40 c5 -11 10 -36 10 -56 0 -20 -5 -45 -10 -56 -13 -23 -55 -25 -64
-3 -10 27 -6 110 6 122 18 18 46 14 58 -7z"/>
<path d="M18810 10811 c5 -11 10 -47 10 -81 0 -34 -5 -70 -10 -81 -10 -17 -7
-19 30 -19 37 0 40 2 30 19 -5 11 -10 56 -10 100 l0 81 -30 0 c-27 0 -30 -2
-20 -19z"/>
<path d="M18974 10816 c-56 -25 -69 -120 -23 -162 25 -22 84 -24 105 -3 14 14
11 16 -28 15 -41 -1 -43 0 -52 36 -13 51 3 102 33 106 16 3 24 -2 28 -17 7
-29 33 -27 33 3 0 16 -7 26 -22 30 -31 8 -38 7 -74 -8z"/>
<path d="M19478 10818 c-27 -7 -38 -15 -38 -29 0 -26 26 -24 33 2 4 16 12 20
34 17 23 -2 29 -8 31 -35 3 -28 0 -33 -25 -38 -51 -11 -78 -29 -81 -58 -5 -39
34 -56 79 -33 39 20 39 20 39 1 0 -10 10 -15 32 -15 25 0 29 3 20 12 -7 7 -12
40 -12 80 0 55 -4 72 -20 88 -22 22 -36 23 -92 8z m60 -125 c-2 -21 -9 -29
-27 -31 -32 -5 -46 11 -32 37 7 13 22 21 37 21 22 0 25 -4 22 -27z"/>
<path d="M19794 10820 c-33 -13 -54 -50 -54 -95 0 -75 56 -113 119 -80 40 20
39 25 -4 18 -50 -8 -65 9 -65 71 0 29 5 57 12 64 18 18 46 14 53 -8 9 -28 35
-25 35 4 0 33 -48 46 -96 26z"/>
<path d="M19968 10818 c-27 -7 -38 -15 -38 -29 0 -26 26 -24 33 2 4 16 12 20
34 17 23 -2 29 -8 31 -35 3 -28 0 -33 -25 -38 -51 -11 -78 -29 -81 -58 -5 -39
34 -56 79 -33 39 20 39 20 39 1 0 -10 10 -15 32 -15 25 0 29 3 20 12 -7 7 -12
40 -12 80 0 55 -4 72 -20 88 -22 22 -36 23 -92 8z m60 -125 c-2 -21 -9 -29
-27 -31 -32 -5 -46 11 -32 37 7 13 22 21 37 21 22 0 25 -4 22 -27z"/>
<path d="M20334 10820 c-73 -30 -72 -156 2 -180 25 -9 40 -8 68 4 20 8 36 20
36 26 0 7 -6 8 -19 0 -46 -24 -91 -6 -91 37 0 21 4 23 61 23 l62 0 -7 32 c-4
18 -12 38 -19 45 -17 17 -67 24 -93 13z m64 -42 c3 -26 1 -28 -32 -28 -28 0
-36 4 -36 18 0 48 63 56 68 10z"/>
<path d="M20532 10820 c-12 -5 -28 -21 -34 -36 -10 -22 -9 -31 5 -56 16 -28
16 -32 1 -49 -11 -13 -13 -22 -6 -35 8 -14 6 -21 -6 -30 -40 -30 29 -70 103
-59 110 16 95 105 -18 105 -41 0 -48 3 -45 18 2 10 11 16 21 14 10 -2 34 2 53
8 36 12 48 35 42 86 -2 19 1 28 10 27 6 -2 12 2 12 7 0 12 -107 12 -138 0z
m69 -37 c14 -38 -3 -75 -34 -71 -17 2 -23 11 -25 36 -4 45 3 62 28 62 13 0 24
-10 31 -27z m26 -179 c8 -21 -14 -34 -59 -34 -39 0 -53 12 -44 35 8 22 95 20
103 -1z"/>
<path d="M20754 10820 c-73 -29 -72 -156 1 -180 68 -22 125 20 125 92 0 52
-13 74 -51 87 -37 13 -46 13 -75 1z m64 -22 c12 -12 17 -104 6 -132 -9 -22
-51 -20 -64 3 -14 27 -13 114 2 129 7 7 19 12 28 12 9 0 21 -5 28 -12z"/>
<path d="M20940 10811 c5 -11 10 -47 10 -81 0 -34 -5 -70 -10 -81 -10 -17 -7
-19 30 -19 38 0 40 1 30 20 -17 33 -8 131 13 144 14 9 21 7 31 -6 19 -26 36
-22 36 7 0 33 -23 42 -55 21 -30 -20 -35 -20 -35 -1 0 10 -10 15 -30 15 -27 0
-30 -2 -20 -19z"/>
<path d="M21107 10818 c6 -7 24 -55 41 -107 24 -70 29 -98 21 -112 -10 -20
-49 -27 -49 -9 0 6 -4 10 -10 10 -16 0 -12 -40 5 -46 28 -11 67 26 93 90 15
33 41 89 58 124 l31 62 -35 0 c-30 0 -33 -2 -21 -16 10 -13 10 -25 -6 -70 -10
-30 -22 -54 -26 -54 -4 0 -15 23 -25 52 -13 40 -14 55 -5 70 10 16 7 18 -35
18 -36 0 -44 -3 -37 -12z"/>
<path d="M21600 10822 c-53 -16 -74 -118 -33 -164 32 -36 121 -29 143 12 16
31 12 105 -7 129 -20 23 -65 33 -103 23z m71 -51 c8 -26 8 -52 2 -77 -7 -32
-13 -40 -36 -42 -21 -3 -29 2 -37 23 -24 62 -5 135 34 135 21 0 27 -7 37 -39z"/>
<path d="M21780 10811 c5 -11 10 -47 10 -81 0 -34 -5 -70 -10 -81 -10 -17 -7
-19 30 -19 37 0 40 2 30 19 -5 11 -10 41 -10 66 0 25 5 55 10 66 13 23 38 25
46 4 11 -27 34 -17 34 15 0 34 -11 37 -54 15 -35 -18 -36 -18 -36 0 0 10 -10
15 -30 15 -27 0 -30 -2 -20 -19z"/>
<path d="M22037 10818 c6 -7 24 -55 41 -107 24 -70 29 -98 21 -112 -10 -20
-49 -27 -49 -9 0 6 -4 10 -10 10 -16 0 -12 -40 5 -46 28 -11 67 26 93 90 15
33 41 89 58 124 l31 62 -35 0 c-30 0 -33 -2 -21 -16 10 -13 10 -25 -6 -70 -10
-30 -22 -54 -26 -54 -4 0 -15 23 -25 52 -13 40 -14 55 -5 70 10 16 7 18 -35
18 -36 0 -44 -3 -37 -12z"/>
<path d="M22294 10816 c-36 -16 -44 -32 -44 -90 0 -72 45 -107 115 -88 60 16
84 123 37 166 -26 23 -72 28 -108 12z m80 -48 c6 -24 6 -52 0 -75 -7 -31 -14
-39 -36 -41 -22 -3 -28 2 -38 33 -11 33 -7 95 7 118 3 4 17 7 31 5 22 -2 29
-10 36 -40z"/>
<path d="M22480 10811 c5 -11 10 -49 10 -85 0 -89 24 -113 80 -81 32 18 40 18
40 0 0 -10 10 -15 32 -15 25 0 29 3 20 12 -8 8 -12 45 -12 100 l0 88 -27 0
-28 0 0 -82 c0 -80 -1 -83 -24 -86 -33 -5 -41 12 -41 96 l0 72 -30 0 c-27 0
-30 -2 -20 -19z"/>
<path d="M22720 10811 c5 -11 10 -47 10 -81 0 -34 -5 -70 -10 -81 -10 -17 -7
-19 30 -19 37 0 40 2 30 19 -5 11 -10 41 -10 66 0 25 5 55 10 66 13 23 38 25
46 4 11 -27 34 -17 34 15 0 34 -11 37 -54 15 -35 -18 -36 -18 -36 0 0 10 -10
15 -30 15 -27 0 -30 -2 -20 -19z"/>
<path d="M23022 10820 c-12 -5 -28 -21 -34 -36 -10 -22 -9 -31 5 -56 16 -28
16 -32 1 -49 -11 -13 -13 -22 -6 -35 8 -14 6 -21 -6 -30 -40 -30 29 -70 103
-59 110 16 95 105 -18 105 -41 0 -48 3 -45 18 2 10 11 16 21 14 10 -2 34 2 53
8 36 12 48 35 42 86 -2 19 1 28 10 27 6 -2 12 2 12 7 0 12 -107 12 -138 0z
m69 -37 c14 -38 -3 -75 -34 -71 -17 2 -23 11 -25 36 -4 45 3 62 28 62 13 0 24
-10 31 -27z m26 -179 c8 -21 -14 -34 -59 -34 -39 0 -53 12 -44 35 8 22 95 20
103 -1z"/>
<path d="M23244 10820 c-73 -29 -72 -156 1 -180 68 -22 125 20 125 92 0 52
-13 74 -51 87 -37 13 -46 13 -75 1z m64 -22 c12 -12 17 -104 6 -132 -9 -22
-51 -20 -64 3 -14 27 -13 114 2 129 7 7 19 12 28 12 9 0 21 -5 28 -12z"/>
<path d="M23463 10819 c-23 -7 -33 -16 -33 -29 0 -26 16 -26 30 0 13 24 55 27
64 4 13 -34 6 -54 -21 -60 -78 -16 -102 -38 -83 -74 15 -27 47 -34 75 -16 30
20 35 20 35 1 0 -10 10 -15 30 -15 27 0 30 2 20 19 -5 11 -10 52 -10 91 0 67
-1 71 -26 80 -29 12 -38 11 -81 -1z m67 -117 c0 -25 -19 -42 -47 -42 -25 0
-32 27 -11 48 19 19 58 15 58 -6z"/>
<path d="M18390 10659 c0 -17 -5 -39 -11 -51 -16 -29 0 -37 22 -9 23 28 26 91
4 91 -10 0 -15 -10 -15 -31z"/>
<path d="M13170 6075 l0 -4035 7395 0 7395 0 0 4035 0 4035 -7395 0 -7395 0 0
-4035z m1960 3535 l0 -460 -960 0 -960 0 0 460 0 460 960 0 960 0 0 -460z
m10760 0 l0 -460 -4805 0 -4805 0 0 460 0 460 4805 0 4805 0 0 -460z m592 129
c64 -34 63 -214 -2 -249 -59 -32 -118 11 -127 93 -14 122 50 198 129 156z
m200 0 c64 -34 63 -214 -2 -249 -59 -32 -118 11 -127 93 -14 122 50 198 129
156z m310 0 c64 -34 63 -214 -2 -249 -59 -32 -118 11 -127 93 -14 122 50 198
129 156z m200 0 c64 -34 63 -214 -2 -249 -59 -32 -118 11 -127 93 -14 122 50
198 129 156z m-374 -101 c-2 -15 -10 -23 -23 -23 -13 0 -21 8 -23 23 -3 18 1
22 23 22 22 0 26 -4 23 -22z m0 -136 c3 -18 -1 -22 -22 -22 -19 0 -26 5 -26
18 0 39 43 43 48 4z m-11688 -892 l0 -460 -960 0 -960 0 0 460 0 460 960 0
960 0 0 -460z m10760 0 l0 -460 -4805 0 -4805 0 0 460 0 460 4805 0 4805 0 0
-460z m592 129 c64 -34 63 -214 -2 -249 -59 -32 -118 11 -127 93 -14 122 50
198 129 156z m200 0 c64 -34 63 -214 -2 -249 -59 -32 -118 11 -127 93 -14 122
50 198 129 156z m310 0 c64 -34 63 -214 -2 -249 -59 -32 -118 11 -127 93 -14
122 50 198 129 156z m200 0 c64 -34 63 -214 -2 -249 -59 -32 -118 11 -127 93
-14 122 50 198 129 156z m-374 -101 c-2 -15 -10 -23 -23 -23 -13 0 -21 8 -23
23 -3 18 1 22 23 22 22 0 26 -4 23 -22z m0 -136 c3 -18 -1 -22 -22 -22 -19 0
-26 5 -26 18 0 39 43 43 48 4z m-11688 -892 l0 -460 -960 0 -960 0 0 460 0
460 960 0 960 0 0 -460z m10760 0 l0 -460 -4805 0 -4805 0 0 460 0 460 4805 0
4805 0 0 -460z m592 129 c64 -34 63 -214 -2 -249 -59 -32 -118 11 -127 93 -14
122 50 198 129 156z m200 0 c64 -34 63 -214 -2 -249 -59 -32 -118 11 -127 93
-14 122 50 198 129 156z m310 0 c64 -34 63 -214 -2 -249 -59 -32 -118 11 -127
93 -14 122 50 198 129 156z m200 0 c64 -34 63 -214 -2 -249 -59 -32 -118 11
-127 93 -14 122 50 198 129 156z m-374 -101 c-2 -15 -10 -23 -23 -23 -13 0
-21 8 -23 23 -3 18 1 22 23 22 22 0 26 -4 23 -22z m0 -136 c3 -18 -1 -22 -22
-22 -19 0 -26 5 -26 18 0 39 43 43 48 4z m-11688 -892 l0 -460 -960 0 -960 0
0 460 0 460 960 0 960 0 0 -460z m10760 0 l0 -460 -4805 0 -4805 0 0 460 0
460 4805 0 4805 0 0 -460z m592 129 c64 -34 63 -214 -2 -249 -59 -32 -118 11
-127 93 -14 122 50 198 129 156z m200 0 c64 -34 63 -214 -2 -249 -59 -32 -118
11 -127 93 -14 122 50 198 129 156z m310 0 c64 -34 63 -214 -2 -249 -59 -32
-118 11 -127 93 -14 122 50 198 129 156z m200 0 c64 -34 63 -214 -2 -249 -59
-32 -118 11 -127 93 -14 122 50 198 129 156z m-374 -101 c-2 -15 -10 -23 -23
-23 -13 0 -21 8 -23 23 -3 18 1 22 23 22 22 0 26 -4 23 -22z m0 -136 c3 -18
-1 -22 -22 -22 -19 0 -26 5 -26 18 0 39 43 43 48 4z m-11688 -892 l0 -460
-960 0 -960 0 0 460 0 460 960 0 960 0 0 -460z m10760 0 l0 -460 -4805 0
-4805 0 0 460 0 460 4805 0 4805 0 0 -460z m592 129 c64 -34 63 -214 -2 -249
-59 -32 -118 11 -127 93 -14 122 50 198 129 156z m200 0 c64 -34 63 -214 -2
-249 -59 -32 -118 11 -127 93 -14 122 50 198 129 156z m310 0 c64 -34 63 -214
-2 -249 -59 -32 -118 11 -127 93 -14 122 50 198 129 156z m200 0 c64 -34 63
-214 -2 -249 -59 -32 -118 11 -127 93 -14 122 50 198 129 156z m-374 -101 c-2
-15 -10 -23 -23 -23 -13 0 -21 8 -23 23 -3 18 1 22 23 22 22 0 26 -4 23 -22z
m0 -136 c3 -18 -1 -22 -22 -22 -19 0 -26 5 -26 18 0 39 43 43 48 4z m-11688
-892 l0 -460 -960 0 -960 0 0 460 0 460 960 0 960 0 0 -460z m10760 0 l0 -460
-4805 0 -4805 0 0 460 0 460 4805 0 4805 0 0 -460z m592 129 c64 -34 63 -214
-2 -249 -59 -32 -118 11 -127 93 -14 122 50 198 129 156z m200 0 c64 -34 63
-214 -2 -249 -59 -32 -118 11 -127 93 -14 122 50 198 129 156z m310 0 c64 -34
63 -214 -2 -249 -59 -32 -118 11 -127 93 -14 122 50 198 129 156z m200 0 c64
-34 63 -214 -2 -249 -59 -32 -118 11 -127 93 -14 122 50 198 129 156z m-374
-101 c-2 -15 -10 -23 -23 -23 -13 0 -21 8 -23 23 -3 18 1 22 23 22 22 0 26 -4
23 -22z m0 -136 c3 -18 -1 -22 -22 -22 -19 0 -26 5 -26 18 0 39 43 43 48 4z
m-11688 -892 l0 -460 -960 0 -960 0 0 460 0 460 960 0 960 0 0 -460z m10760 0
l0 -460 -4805 0 -4805 0 0 460 0 460 4805 0 4805 0 0 -460z m592 129 c64 -34
63 -214 -2 -249 -59 -32 -118 11 -127 93 -14 122 50 198 129 156z m200 0 c64
-34 63 -214 -2 -249 -59 -32 -118 11 -127 93 -14 122 50 198 129 156z m310 0
c64 -34 63 -214 -2 -249 -59 -32 -118 11 -127 93 -14 122 50 198 129 156z
m200 0 c64 -34 63 -214 -2 -249 -59 -32 -118 11 -127 93 -14 122 50 198 129
156z m-374 -101 c-2 -15 -10 -23 -23 -23 -13 0 -21 8 -23 23 -3 18 1 22 23 22
22 0 26 -4 23 -22z m0 -136 c3 -18 -1 -22 -22 -22 -19 0 -26 5 -26 18 0 39 43
43 48 4z m-11688 -892 l0 -460 -960 0 -960 0 0 460 0 460 960 0 960 0 0 -460z
m10760 0 l0 -460 -4805 0 -4805 0 0 460 0 460 4805 0 4805 0 0 -460z m592 129
c64 -34 63 -214 -2 -249 -59 -32 -118 11 -127 93 -14 122 50 198 129 156z
m200 0 c64 -34 63 -214 -2 -249 -59 -32 -118 11 -127 93 -14 122 50 198 129
156z m310 0 c64 -34 63 -214 -2 -249 -59 -32 -118 11 -127 93 -14 122 50 198
129 156z m200 0 c64 -34 63 -214 -2 -249 -59 -32 -118 11 -127 93 -14 122 50
198 129 156z m-374 -101 c-2 -15 -10 -23 -23 -23 -13 0 -21 8 -23 23 -3 18 1
22 23 22 22 0 26 -4 23 -22z m0 -136 c3 -18 -1 -22 -22 -22 -19 0 -26 5 -26
18 0 39 43 43 48 4z"/>
<path d="M14460 9711 c5 -11 10 -59 10 -106 0 -47 -5 -95 -10 -106 -10 -17 -7
-19 22 -19 l33 0 -3 125 -3 125 -30 0 c-26 0 -29 -2 -19 -19z"/>
<path d="M13648 9713 c8 -3 12 -36 12 -113 0 -77 -4 -110 -12 -113 -7 -3 10
-5 37 -5 28 0 44 2 38 5 -8 3 -13 24 -13 54 0 45 2 49 24 49 15 0 26 -7 29
-17 3 -10 5 2 5 27 0 25 -2 37 -5 28 -3 -11 -14 -18 -29 -18 -22 0 -24 4 -24
45 0 43 1 45 29 45 18 0 34 -8 44 -22 16 -23 16 -23 16 10 l1 32 -82 -1 c-46
0 -77 -3 -70 -6z"/>
<path d="M14360 9700 c0 -11 7 -20 15 -20 8 0 15 9 15 20 0 11 -7 20 -15 20
-8 0 -15 -9 -15 -20z"/>
<path d="M13863 9649 c-18 -5 -33 -16 -33 -24 0 -20 17 -19 28 1 5 9 18 14 33
12 21 -3 24 -9 25 -46 1 -23 5 -58 8 -77 6 -30 11 -35 33 -35 21 0 24 3 15 12
-7 7 -12 40 -12 80 0 56 -3 69 -19 78 -23 12 -34 12 -78 -1z"/>
<path d="M14025 9570 l0 -90 33 0 c30 0 32 2 22 20 -16 30 -8 111 11 123 33
21 49 1 49 -61 0 -32 -5 -63 -12 -70 -9 -9 -2 -12 33 -12 27 0 39 3 31 9 -9 5
-12 27 -10 72 3 61 4 64 28 64 24 0 25 -2 25 -73 l0 -72 35 0 c26 0 31 3 22
12 -7 7 -12 40 -12 80 0 57 -3 69 -20 78 -15 8 -27 7 -51 -5 -29 -15 -32 -15
-50 1 -17 15 -22 16 -47 3 -15 -7 -30 -15 -34 -17 -5 -2 -8 3 -8 12 0 10 -9
16 -22 16 -22 0 -23 -3 -23 -90z"/>
<path d="M14345 9570 l0 -90 33 0 c29 0 32 2 22 19 -5 11 -10 51 -10 90 0 67
-1 71 -22 71 -22 0 -23 -3 -23 -90z"/>
<path d="M14547 9648 c6 -7 21 -44 33 -83 12 -38 26 -75 31 -81 15 -18 -20
-56 -47 -51 -27 5 -34 -20 -8 -30 25 -9 60 33 94 115 17 42 40 92 51 110 l18
32 -31 0 c-24 0 -28 -3 -19 -13 8 -10 7 -26 -5 -60 -9 -26 -20 -49 -24 -52 -5
-3 -17 20 -26 50 -16 49 -16 58 -4 66 11 6 2 9 -29 9 -33 0 -41 -3 -34 -12z"/>
<path d="M13842 9554 c-27 -19 -29 -50 -3 -64 26 -13 33 -13 56 3 17 13 17 14
-6 13 -30 -1 -39 32 -13 51 27 19 -6 17 -34 -3z"/>
<path d="M26411 9699 c-14 -40 -14 -139 -1 -173 12 -33 43 -34 58 -1 15 31 16
144 2 179 -14 37 -45 34 -59 -5z"/>
<path d="M26611 9699 c-14 -40 -14 -139 -1 -173 12 -33 43 -34 58 -1 15 31 16
144 2 179 -14 37 -45 34 -59 -5z"/>
<path d="M26921 9699 c-14 -40 -14 -139 -1 -173 12 -33 43 -34 58 -1 15 31 16
144 2 179 -14 37 -45 34 -59 -5z"/>
<path d="M27121 9699 c-14 -40 -14 -139 -1 -173 12 -33 43 -34 58 -1 15 31 16
144 2 179 -14 37 -45 34 -59 -5z"/>
<path d="M14808 8718 c16 -16 16 -210 0 -226 -9 -9 -4 -12 23 -12 l34 0 -3
125 -3 125 -32 0 c-24 0 -28 -3 -19 -12z"/>
<path d="M13513 8705 c-28 -12 -33 -19 -33 -49 0 -26 6 -40 26 -53 68 -48 79
-61 68 -80 -6 -10 -26 -19 -43 -21 -26 -3 -34 1 -38 17 -7 29 -23 26 -23 -3 0
-20 6 -25 38 -31 48 -8 89 8 104 40 16 35 -1 68 -52 96 -33 19 -40 28 -38 49
4 34 51 41 70 11 17 -28 28 -26 28 3 0 18 -7 25 -31 30 -40 8 -38 8 -76 -9z"/>
<path d="M13890 8700 c0 -13 7 -20 20 -20 13 0 20 7 20 20 0 13 -7 20 -20 20
-13 0 -20 -7 -20 -20z"/>
<path d="M14170 8700 c0 -13 7 -20 20 -20 13 0 20 7 20 20 0 13 -7 20 -20 20
-13 0 -20 -7 -20 -20z"/>
<path d="M14278 8670 c-9 -17 -13 -30 -8 -30 6 0 10 -29 10 -64 0 -86 23 -112
73 -84 l22 12 -25 6 c-23 5 -25 11 -28 68 -3 61 -2 62 23 62 14 0 25 5 25 10
0 6 -11 10 -25 10 -18 0 -25 5 -25 20 0 30 -23 24 -42 -10z"/>
<path d="M13658 8653 c9 -3 12 -38 12 -123 0 -85 -3 -120 -12 -123 -7 -3 7 -6
31 -6 35 -1 42 2 33 11 -7 7 -12 26 -12 44 0 30 2 31 40 30 24 0 46 6 55 15
37 37 26 141 -17 154 -10 4 -30 0 -43 -9 -30 -20 -35 -20 -35 -1 0 10 -10 15
-32 14 -18 0 -27 -3 -20 -6z m125 -63 c12 -49 -5 -90 -37 -90 -27 0 -36 16
-36 69 0 69 58 86 73 21z"/>
<path d="M13878 8648 c7 -7 12 -40 12 -78 0 -38 -5 -71 -12 -78 -9 -9 -2 -12
32 -12 34 0 41 3 32 12 -7 7 -12 43 -12 90 l0 78 -32 0 c-25 0 -29 -3 -20 -12z"/>
<path d="M13988 8651 c10 -6 13 -30 10 -90 l-3 -81 34 0 c28 0 32 2 21 15 -7
8 -11 38 -10 72 4 93 4 93 -32 93 -22 0 -29 -3 -20 -9z"/>
<path d="M14077 8649 c-17 -10 -17 -12 8 -25 35 -18 35 -18 35 11 0 27 -14 31
-43 14z"/>
<path d="M14158 8648 c7 -7 12 -40 12 -78 0 -38 -5 -71 -12 -78 -9 -9 -2 -12
33 -11 24 0 38 3 32 6 -9 3 -13 31 -13 89 l0 84 -32 0 c-25 0 -29 -3 -20 -12z"/>
<path d="M14398 8648 c7 -7 12 -40 12 -80 0 -63 2 -69 25 -80 19 -9 29 -8 49
6 31 20 36 20 36 1 0 -9 9 -15 25 -15 22 0 24 3 15 19 -5 11 -10 51 -10 90 0
67 -1 71 -22 71 -22 0 -23 -4 -23 -72 0 -71 -1 -73 -25 -73 -24 0 -25 3 -28
73 l-3 72 -31 0 c-25 0 -29 -3 -20 -12z"/>
<path d="M14653 8649 c-18 -5 -33 -16 -33 -24 0 -19 16 -19 24 0 3 8 17 15 30
15 19 0 27 -7 32 -26 4 -17 2 -29 -7 -35 -10 -6 -11 -9 -1 -9 6 0 12 -10 12
-23 0 -13 -6 -29 -12 -36 -10 -11 -10 -13 0 -7 7 4 12 1 12 -8 0 -11 9 -16 33
-15 17 0 26 3 20 6 -9 3 -13 27 -13 69 0 51 -4 68 -20 84 -22 22 -29 23 -77 9z"/>
<path d="M14628 8559 c-40 -23 -6 -89 36 -73 13 5 12 9 -7 25 l-22 19 24 20
c20 18 21 20 5 20 -11 0 -27 -5 -36 -11z"/>
<path d="M26411 8699 c-14 -40 -14 -139 -1 -173 12 -33 43 -34 58 -1 15 31 16
144 2 179 -14 37 -45 34 -59 -5z"/>
<path d="M26611 8699 c-14 -40 -14 -139 -1 -173 12 -33 43 -34 58 -1 15 31 16
144 2 179 -14 37 -45 34 -59 -5z"/>
<path d="M26921 8699 c-14 -40 -14 -139 -1 -173 12 -33 43 -34 58 -1 15 31 16
144 2 179 -14 37 -45 34 -59 -5z"/>
<path d="M27121 8699 c-14 -40 -14 -139 -1 -173 12 -33 43 -34 58 -1 15 31 16
144 2 179 -14 37 -45 34 -59 -5z"/>
<path d="M14848 7718 c16 -16 16 -210 0 -226 -9 -9 -2 -12 32 -12 34 0 41 3
32 12 -8 8 -12 50 -12 125 l0 113 -32 0 c-25 0 -29 -3 -20 -12z"/>
<path d="M13438 7708 c16 -16 16 -200 0 -216 -9 -9 -1 -12 36 -12 43 0 46 1
32 16 -9 9 -16 32 -16 55 0 35 3 39 25 39 13 0 29 -8 34 -17 8 -14 10 -8 10
27 0 35 -2 41 -10 28 -5 -10 -21 -18 -34 -18 -23 0 -25 4 -25 45 0 44 0 45 34
45 23 0 38 -7 49 -22 16 -23 16 -23 16 10 l1 32 -82 0 c-64 0 -79 -3 -70 -12z"/>
<path d="M13650 7700 c0 -13 7 -20 20 -20 13 0 20 7 20 20 0 13 -7 20 -20 20
-13 0 -20 -7 -20 -20z"/>
<path d="M14560 7700 c0 -11 7 -20 15 -20 8 0 15 9 15 20 0 11 -7 20 -15 20
-8 0 -15 -9 -15 -20z"/>
<path d="M13638 7648 c7 -7 12 -40 12 -78 0 -38 -5 -71 -12 -78 -9 -9 -2 -12
33 -11 24 0 38 3 32 6 -9 3 -13 31 -13 89 l0 84 -32 0 c-25 0 -29 -3 -20 -12z"/>
<path d="M13748 7648 c7 -7 12 -40 12 -78 0 -38 -5 -71 -12 -78 -9 -9 -2 -12
31 -12 37 0 42 2 31 14 -6 9 -11 40 -10 73 3 95 3 93 -32 93 -25 0 -29 -3 -20
-12z"/>
<path d="M13834 7645 c-19 -14 -19 -14 2 -15 14 0 24 -8 28 -22 9 -35 7 -87
-4 -109 -10 -17 -7 -19 24 -19 34 0 35 1 26 26 -6 14 -10 50 -10 79 0 43 -4
56 -19 65 -25 13 -23 13 -47 -5z"/>
<path d="M14003 7649 c-18 -5 -33 -16 -33 -24 0 -19 16 -19 24 0 3 8 17 15 30
15 19 0 27 -7 32 -26 4 -17 2 -29 -7 -35 -10 -6 -11 -9 -1 -9 6 0 12 -10 12
-23 0 -13 -6 -29 -12 -36 -10 -11 -10 -13 0 -7 7 4 12 1 12 -8 0 -11 9 -16 33
-15 17 0 26 3 20 6 -9 3 -13 27 -13 69 0 51 -4 68 -20 84 -22 22 -29 23 -77 9z"/>
<path d="M14158 7648 c7 -7 12 -40 12 -78 0 -38 -5 -71 -12 -78 -9 -9 -2 -12
31 -12 37 0 42 2 31 14 -6 9 -11 40 -10 73 3 95 3 93 -32 93 -25 0 -29 -3 -20
-12z"/>
<path d="M14244 7645 c-19 -14 -19 -14 2 -15 14 0 24 -8 28 -22 9 -35 7 -87
-4 -109 -10 -17 -7 -19 24 -19 34 0 35 1 26 26 -6 14 -10 50 -10 79 0 43 -4
56 -19 65 -25 13 -23 13 -47 -5z"/>
<path d="M14420 7647 c-39 -20 -56 -58 -45 -103 13 -50 52 -72 96 -54 39 17
37 27 -6 22 -31 -4 -36 -1 -46 24 -16 42 0 98 29 102 13 2 25 -3 28 -12 8 -22
24 -20 24 3 0 31 -38 39 -80 18z"/>
<path d="M14545 7570 l0 -90 33 0 c29 0 32 2 22 19 -5 11 -10 51 -10 90 0 67
-1 71 -22 71 -22 0 -23 -3 -23 -90z"/>
<path d="M14693 7649 c-18 -5 -33 -16 -33 -24 0 -20 16 -19 24 1 10 26 60 14
64 -15 2 -13 -2 -28 -10 -32 -10 -7 -10 -9 0 -9 17 0 15 -45 -3 -60 -8 -7 -22
-10 -30 -6 -20 7 -19 43 3 55 16 10 16 10 -1 11 -32 0 -57 -20 -57 -45 0 -36
33 -50 71 -31 26 13 31 13 36 0 3 -7 17 -14 32 -13 14 0 20 3 14 6 -9 3 -13
28 -13 73 0 60 -3 71 -22 84 -25 18 -30 18 -75 5z"/>
<path d="M13978 7559 c-40 -23 -6 -89 36 -73 13 5 12 9 -7 25 l-22 19 24 20
c20 18 21 20 5 20 -11 0 -27 -5 -36 -11z"/>
<path d="M26411 7699 c-14 -40 -14 -139 -1 -173 12 -33 43 -34 58 -1 15 31 16
144 2 179 -14 37 -45 34 -59 -5z"/>
<path d="M26611 7699 c-14 -40 -14 -139 -1 -173 12 -33 43 -34 58 -1 15 31 16
144 2 179 -14 37 -45 34 -59 -5z"/>
<path d="M26921 7699 c-14 -40 -14 -139 -1 -173 12 -33 43 -34 58 -1 15 31 16
144 2 179 -14 37 -45 34 -59 -5z"/>
<path d="M27121 7699 c-14 -40 -14 -139 -1 -173 12 -33 43 -34 58 -1 15 31 16
144 2 179 -14 37 -45 34 -59 -5z"/>
<path d="M13608 6713 c8 -3 12 -36 12 -113 0 -77 -4 -110 -12 -113 -7 -3 10
-5 37 -5 28 0 44 2 38 5 -8 3 -13 24 -13 54 0 45 2 49 24 49 15 0 26 -7 29
-17 3 -10 5 2 5 27 0 25 -2 37 -5 28 -3 -11 -14 -18 -29 -18 -22 0 -24 4 -24
45 0 43 1 45 29 45 18 0 34 -8 44 -22 16 -23 16 -23 16 10 l1 32 -82 -1 c-46
0 -77 -3 -70 -6z"/>
<path d="M13820 6700 c0 -13 7 -20 20 -20 13 0 20 7 20 20 0 13 -7 20 -20 20
-13 0 -20 -7 -20 -20z"/>
<path d="M13930 6680 c0 -10 -8 -24 -17 -29 -17 -10 -17 -10 0 -11 14 0 17
-10 17 -70 0 -64 2 -71 24 -81 18 -8 29 -8 47 2 l24 14 -27 3 c-27 3 -28 5
-28 68 0 62 1 64 25 64 14 0 25 5 25 10 0 6 -11 10 -25 10 -18 0 -25 5 -25 20
0 13 -7 20 -20 20 -13 0 -20 -7 -20 -20z"/>
<path d="M13808 6648 c7 -7 12 -40 12 -78 0 -38 -5 -71 -12 -78 -9 -9 -2 -12
33 -11 24 0 38 3 32 6 -9 3 -13 31 -13 89 l0 84 -32 0 c-25 0 -29 -3 -20 -12z"/>
<path d="M14048 6651 c10 -6 13 -30 10 -90 l-3 -81 35 0 c26 0 31 3 22 12 -7
7 -12 35 -12 63 0 28 5 56 12 63 17 17 45 15 52 -4 10 -27 6 -110 -6 -122 -9
-9 -2 -12 32 -12 34 0 41 3 32 12 -7 7 -12 39 -12 73 0 49 -4 66 -20 80 -18
16 -23 17 -48 4 -15 -7 -30 -15 -34 -17 -5 -2 -8 3 -8 12 0 11 -9 16 -32 16
-22 0 -29 -3 -20 -9z"/>
<path d="M14310 6647 c-37 -19 -54 -60 -43 -105 14 -60 74 -78 128 -38 18 13
15 14 -27 9 -44 -5 -48 -4 -58 21 -5 15 -10 29 -10 32 0 2 25 4 55 4 51 0 55
2 55 23 0 50 -53 79 -100 54z m58 -34 c3 -20 -1 -23 -33 -23 -20 0 -34 3 -32
8 2 4 7 15 10 25 10 27 51 18 55 -10z"/>
<path d="M14490 6651 c-18 -5 -26 -15 -28 -36 -2 -26 3 -33 35 -50 47 -25 52
-58 10 -63 -18 -2 -29 2 -33 12 -8 22 -24 20 -24 -3 0 -41 111 -35 124 7 10
29 -1 47 -42 68 -20 11 -37 27 -37 34 0 21 53 26 61 6 8 -22 24 -20 24 3 0 27
-38 36 -90 22z"/>
<path d="M14650 6647 c-39 -20 -33 -57 12 -82 27 -14 38 -27 38 -42 0 -19 -6
-23 -30 -23 -17 0 -33 7 -39 18 -9 15 -10 15 -11 -5 0 -28 48 -40 87 -21 21
10 28 20 28 43 0 24 -7 34 -37 50 -42 22 -52 55 -16 55 12 0 30 -7 40 -17 17
-15 18 -15 18 4 0 13 -8 23 -22 27 -32 8 -40 7 -68 -7z"/>
<path d="M26411 6699 c-14 -40 -14 -139 -1 -173 12 -33 43 -34 58 -1 15 31 16
144 2 179 -14 37 -45 34 -59 -5z"/>
<path d="M26611 6699 c-14 -40 -14 -139 -1 -173 12 -33 43 -34 58 -1 15 31 16
144 2 179 -14 37 -45 34 -59 -5z"/>
<path d="M26921 6699 c-14 -40 -14 -139 -1 -173 12 -33 43 -34 58 -1 15 31 16
144 2 179 -14 37 -45 34 -59 -5z"/>
<path d="M27121 6699 c-14 -40 -14 -139 -1 -173 12 -33 43 -34 58 -1 15 31 16
144 2 179 -14 37 -45 34 -59 -5z"/>
<path d="M13703 5705 c-50 -22 -72 -84 -53 -155 9 -34 18 -44 47 -56 23 -10
49 -13 74 -9 33 6 39 11 39 31 0 29 -11 31 -28 4 -13 -21 -47 -26 -71 -11 -23
15 -28 134 -7 166 21 32 71 35 81 5 9 -28 25 -25 25 4 0 18 -7 25 -31 30 -40
8 -38 8 -76 -9z"/>
<path d="M13883 5649 c-18 -5 -33 -16 -33 -24 0 -20 17 -19 28 1 5 9 18 14 33
12 21 -3 24 -9 25 -46 1 -23 5 -58 8 -77 6 -30 11 -35 33 -35 21 0 24 3 15 12
-7 7 -12 40 -12 80 0 56 -3 69 -19 78 -23 12 -34 12 -78 -1z"/>
<path d="M14045 5570 l0 -90 33 0 c29 0 32 2 22 19 -16 31 -12 107 6 122 12
10 20 10 35 1 26 -17 29 -15 29 13 0 28 -17 32 -46 10 -25 -19 -34 -19 -34 0
0 9 -9 15 -22 15 -22 0 -23 -3 -23 -90z"/>
<path d="M14249 5649 c-59 -22 -63 -130 -6 -157 22 -10 35 -11 62 -2 50 17 52
29 3 23 -33 -5 -44 -2 -55 12 -25 36 -16 45 42 45 52 0 55 2 55 24 0 15 -11
33 -26 45 -29 23 -37 24 -75 10z m59 -36 c3 -20 -1 -23 -32 -23 -39 0 -41 2
-25 31 14 27 53 21 57 -8z"/>
<path d="M14439 5649 c-59 -22 -63 -130 -6 -157 22 -10 35 -11 62 -2 50 17 52
29 3 23 -33 -5 -44 -2 -55 12 -25 36 -16 45 42 45 52 0 55 2 55 24 0 15 -11
33 -26 45 -29 23 -37 24 -75 10z m59 -36 c3 -20 -1 -23 -32 -23 -39 0 -41 2
-25 31 14 27 53 21 57 -8z"/>
<path d="M14588 5648 c7 -7 12 -40 12 -78 0 -38 -5 -71 -12 -78 -9 -9 -2 -12
33 -12 27 0 39 3 31 9 -9 5 -12 27 -10 72 3 58 5 64 26 67 12 2 22 -1 22 -7 0
-6 7 -11 15 -11 17 0 21 35 5 45 -6 4 -24 0 -40 -9 -26 -12 -30 -12 -30 0 0 9
-11 14 -32 14 -25 0 -29 -3 -20 -12z"/>
<path d="M13862 5554 c-27 -19 -29 -50 -3 -64 26 -13 33 -13 56 3 17 13 17 14
-6 13 -30 -1 -39 32 -13 51 27 19 -6 17 -34 -3z"/>
<path d="M26411 5699 c-14 -40 -14 -139 -1 -173 12 -33 43 -34 58 -1 15 31 16
144 2 179 -14 37 -45 34 -59 -5z"/>
<path d="M26611 5699 c-14 -40 -14 -139 -1 -173 12 -33 43 -34 58 -1 15 31 16
144 2 179 -14 37 -45 34 -59 -5z"/>
<path d="M26921 5699 c-14 -40 -14 -139 -1 -173 12 -33 43 -34 58 -1 15 31 16
144 2 179 -14 37 -45 34 -59 -5z"/>
<path d="M27121 5699 c-14 -40 -14 -139 -1 -173 12 -33 43 -34 58 -1 15 31 16
144 2 179 -14 37 -45 34 -59 -5z"/>
<path d="M13680 4709 c20 -36 9 -53 -34 -55 -51 -1 -76 -31 -76 -90 0 -31 6
-50 20 -64 24 -24 39 -25 66 -5 25 19 34 19 34 0 0 -10 10 -15 33 -14 17 0 26
3 20 6 -10 3 -13 38 -13 124 l0 119 -30 0 c-28 0 -30 -2 -20 -21z m4 -85 c10
-27 7 -89 -6 -102 -31 -31 -68 -1 -68 53 0 14 5 35 10 46 13 23 55 25 64 3z"/>
<path d="M13368 4708 c16 -16 16 -200 0 -216 -9 -9 6 -12 69 -12 83 0 93 5 93
46 0 21 -18 17 -25 -6 -5 -16 -15 -20 -46 -20 l-39 0 0 45 c0 41 2 45 25 45
13 0 29 -8 34 -17 8 -14 10 -8 10 27 0 35 -2 41 -10 28 -5 -10 -21 -18 -34
-18 -23 0 -25 4 -25 45 l0 45 39 0 c31 0 41 -4 46 -20 10 -30 25 -24 25 10 l0
30 -87 0 c-68 0 -84 -3 -75 -12z"/>
<path d="M14510 4700 c0 -13 7 -20 20 -20 13 0 20 7 20 20 0 13 -7 20 -20 20
-13 0 -20 -7 -20 -20z"/>
<path d="M14380 4688 c0 -6 -7 -20 -17 -30 -9 -11 -11 -18 -5 -18 8 0 12 -22
12 -64 0 -86 23 -112 73 -84 l22 12 -25 6 c-23 5 -25 11 -28 68 -3 61 -2 62
23 62 14 0 25 5 25 10 0 6 -11 10 -25 10 -18 0 -25 5 -25 20 0 11 -7 20 -15
20 -8 0 -15 -5 -15 -12z"/>
<path d="M13790 4641 c5 -11 10 -47 10 -80 0 -50 3 -62 20 -71 15 -8 26 -7 43
2 l22 13 -22 3 c-22 3 -23 8 -23 78 l0 74 -30 0 c-27 0 -30 -2 -20 -19z"/>
<path d="M13890 4646 c6 -9 11 -40 10 -73 -3 -95 -3 -93 32 -93 25 0 29 3 20
12 -7 7 -12 43 -12 90 l0 78 -31 0 c-26 0 -29 -2 -19 -14z"/>
<path d="M14044 4646 c-36 -16 -44 -32 -44 -86 0 -30 6 -43 26 -59 33 -26 55
-26 85 -1 l24 20 -34 -7 c-26 -5 -37 -2 -48 12 -16 22 -17 69 -3 96 13 23 45
25 54 4 8 -21 26 -19 26 4 0 11 -9 21 -22 25 -29 7 -27 8 -64 -8z"/>
<path d="M14203 4649 c-18 -5 -33 -16 -33 -24 0 -20 17 -19 28 1 5 9 18 14 33
12 21 -3 24 -9 25 -46 1 -23 5 -58 8 -77 6 -30 11 -35 33 -35 21 0 24 3 15 12
-7 7 -12 40 -12 80 0 56 -3 69 -19 78 -23 12 -34 12 -78 -1z"/>
<path d="M14498 4648 c7 -7 12 -40 12 -78 0 -38 -5 -71 -12 -78 -9 -9 -2 -12
33 -11 24 0 38 3 32 6 -9 3 -13 31 -13 89 l0 84 -32 0 c-25 0 -29 -3 -20 -12z"/>
<path d="M14650 4647 c-39 -20 -55 -62 -41 -109 7 -21 20 -42 29 -46 32 -12
81 -6 102 13 26 24 28 104 3 128 -26 23 -65 29 -93 14z m64 -23 c3 -9 6 -33 6
-54 0 -53 -8 -70 -35 -70 -13 0 -26 7 -29 16 -8 21 -8 109 1 117 12 13 51 7
57 -9z"/>
<path d="M14815 4570 l0 -90 33 0 c30 0 32 2 22 20 -16 30 -8 111 11 123 33
21 49 1 49 -61 0 -32 -5 -63 -12 -70 -9 -9 -2 -12 32 -12 34 0 41 3 32 12 -7
7 -12 39 -12 74 0 84 -29 115 -76 79 -25 -19 -34 -19 -34 0 0 9 -9 15 -22 15
-22 0 -23 -3 -23 -90z"/>
<path d="M14182 4554 c-27 -19 -29 -50 -3 -64 26 -13 33 -13 56 3 17 13 17 14
-6 13 -30 -1 -39 32 -13 51 27 19 -6 17 -34 -3z"/>
<path d="M26411 4699 c-14 -40 -14 -139 -1 -173 12 -33 43 -34 58 -1 15 31 16
144 2 179 -14 37 -45 34 -59 -5z"/>
<path d="M26611 4699 c-14 -40 -14 -139 -1 -173 12 -33 43 -34 58 -1 15 31 16
144 2 179 -14 37 -45 34 -59 -5z"/>
<path d="M26921 4699 c-14 -40 -14 -139 -1 -173 12 -33 43 -34 58 -1 15 31 16
144 2 179 -14 37 -45 34 -59 -5z"/>
<path d="M27121 4699 c-14 -40 -14 -139 -1 -173 12 -33 43 -34 58 -1 15 31 16
144 2 179 -14 37 -45 34 -59 -5z"/>
<path d="M14580 3711 c5 -11 10 -59 10 -106 0 -47 -5 -95 -10 -106 -10 -17 -7
-19 22 -19 l33 0 -3 125 -3 125 -30 0 c-26 0 -29 -2 -19 -19z"/>
<path d="M13747 3708 c-55 -20 -47 -86 14 -121 38 -21 58 -55 44 -76 -12 -20
-63 -12 -79 11 l-16 22 0 -26 c0 -21 6 -27 34 -32 61 -12 110 21 104 70 -2 19
-16 37 -48 59 -32 23 -45 39 -45 56 0 20 6 25 33 27 27 3 35 -1 39 -17 7 -29
23 -26 23 3 0 34 -46 45 -103 24z"/>
<path d="M14280 3700 c0 -13 7 -20 20 -20 13 0 20 7 20 20 0 13 -7 20 -20 20
-13 0 -20 -7 -20 -20z"/>
<path d="M13940 3647 c-39 -20 -55 -62 -41 -109 7 -21 20 -42 29 -46 32 -12
81 -6 102 13 26 24 28 104 3 128 -26 23 -65 29 -93 14z m64 -23 c3 -9 6 -33 6
-54 0 -53 -8 -70 -35 -70 -13 0 -26 7 -29 16 -8 21 -8 109 1 117 12 13 51 7
57 -9z"/>
<path d="M14144 3646 c-36 -16 -44 -32 -44 -86 0 -30 6 -43 26 -59 33 -26 55
-26 85 -1 l24 20 -34 -7 c-26 -5 -37 -2 -48 12 -16 22 -17 69 -3 96 13 23 45
25 54 4 8 -21 26 -19 26 4 0 11 -9 21 -22 25 -29 7 -27 8 -64 -8z"/>
<path d="M14268 3651 c10 -6 13 -30 10 -90 l-3 -81 35 0 c26 0 31 3 22 12 -7
7 -12 43 -12 90 l0 78 -32 0 c-22 0 -29 -3 -20 -9z"/>
<path d="M14413 3649 c-18 -5 -33 -16 -33 -24 0 -20 26 -19 34 0 9 25 45 18
57 -12 7 -20 7 -29 -1 -31 -8 -3 -8 -8 0 -17 5 -7 9 -21 9 -31 -4 -44 1 -54
28 -54 21 0 24 3 15 12 -7 7 -12 40 -12 80 0 56 -3 69 -19 78 -23 12 -34 12
-78 -1z"/>
<path d="M14392 3554 c-26 -18 -28 -37 -6 -58 19 -20 35 -20 59 -3 17 13 17
14 -6 13 -30 -1 -39 32 -13 51 27 19 -6 17 -34 -3z"/>
<path d="M26411 3699 c-14 -40 -14 -139 -1 -173 12 -33 43 -34 58 -1 15 31 16
144 2 179 -14 37 -45 34 -59 -5z"/>
<path d="M26611 3699 c-14 -40 -14 -139 -1 -173 12 -33 43 -34 58 -1 15 31 16
144 2 179 -14 37 -45 34 -59 -5z"/>
<path d="M26921 3699 c-14 -40 -14 -139 -1 -173 12 -33 43 -34 58 -1 15 31 16
144 2 179 -14 37 -45 34 -59 -5z"/>
<path d="M27121 3699 c-14 -40 -14 -139 -1 -173 12 -33 43 -34 58 -1 15 31 16
144 2 179 -14 37 -45 34 -59 -5z"/>
<path d="M14148 2718 c16 -16 16 -210 0 -226 -9 -9 -4 -12 23 -12 l34 0 -3
125 -3 125 -32 0 c-24 0 -28 -3 -19 -12z"/>
<path d="M13498 2714 c8 -4 12 -37 12 -114 0 -77 -4 -110 -12 -113 -7 -3 10
-5 37 -5 28 0 44 2 38 5 -8 3 -13 23 -13 49 0 64 29 61 60 -6 20 -42 28 -50
51 -50 l28 0 -21 38 c-12 20 -28 45 -37 55 -13 16 -13 19 7 33 26 18 30 75 7
94 -9 7 -50 15 -93 17 -42 1 -71 0 -64 -3z m120 -26 c7 -7 12 -24 12 -38 0
-32 -17 -50 -47 -50 -21 0 -23 4 -23 50 0 46 2 50 23 50 13 0 28 -5 35 -12z"/>
<path d="M14458 2670 c-9 -17 -13 -30 -8 -30 6 0 10 -29 10 -64 0 -86 23 -112
73 -84 l22 12 -25 6 c-23 5 -25 11 -28 68 -3 61 -2 62 23 62 14 0 25 5 25 10
0 6 -11 10 -25 10 -18 0 -25 5 -25 20 0 30 -23 24 -42 -10z"/>
<path d="M14600 2688 c0 -6 -7 -20 -17 -30 -9 -11 -11 -18 -5 -18 8 0 12 -22
12 -64 0 -86 23 -112 73 -84 l22 12 -25 6 c-23 5 -25 11 -28 68 -3 61 -2 62
23 62 14 0 25 5 25 10 0 6 -11 10 -25 10 -18 0 -25 5 -25 20 0 11 -7 20 -15
20 -8 0 -15 -5 -15 -12z"/>
<path d="M13770 2647 c-39 -20 -55 -62 -41 -109 7 -21 20 -42 29 -46 32 -12
81 -6 102 13 26 24 28 104 3 128 -26 23 -65 29 -93 14z m64 -23 c3 -9 6 -33 6
-54 0 -53 -8 -70 -35 -70 -13 0 -26 7 -29 16 -8 21 -8 109 1 117 12 13 51 7
57 -9z"/>
<path d="M13928 2648 c7 -7 12 -39 12 -74 0 -84 29 -115 76 -79 25 19 34 19
34 0 0 -9 9 -15 23 -15 21 0 22 2 19 90 l-3 90 -30 0 c-27 0 -29 -2 -19 -20
16 -30 8 -111 -11 -123 -35 -22 -49 -2 -49 73 l0 70 -32 0 c-25 0 -29 -3 -20
-12z"/>
<path d="M14303 2650 c-29 -12 -43 -40 -43 -88 0 -27 6 -45 20 -57 26 -24 85
-25 107 -2 16 15 14 16 -20 10 -41 -6 -67 8 -67 38 0 16 8 19 56 19 l56 0 -7
28 c-3 15 -12 32 -18 39 -17 17 -59 24 -84 13z m57 -19 c0 -5 3 -16 6 -25 5
-13 -1 -16 -30 -16 -36 0 -41 5 -30 34 6 17 54 23 54 7z"/>
<path d="M14750 2647 c-37 -19 -54 -60 -43 -105 14 -60 74 -78 128 -38 18 13
15 14 -27 9 -44 -5 -48 -4 -58 21 -5 15 -10 29 -10 32 0 2 25 4 55 4 51 0 55
2 55 23 0 50 -53 79 -100 54z m58 -34 c3 -20 -1 -23 -33 -23 -20 0 -34 3 -32
8 2 4 7 15 10 25 10 27 51 18 55 -10z"/>
<path d="M26411 2699 c-14 -40 -14 -139 -1 -173 12 -33 43 -34 58 -1 15 31 16
144 2 179 -14 37 -45 34 -59 -5z"/>
<path d="M26611 2699 c-14 -40 -14 -139 -1 -173 12 -33 43 -34 58 -1 15 31 16
144 2 179 -14 37 -45 34 -59 -5z"/>
<path d="M26921 2699 c-14 -40 -14 -139 -1 -173 12 -33 43 -34 58 -1 15 31 16
144 2 179 -14 37 -45 34 -59 -5z"/>
<path d="M27121 2699 c-14 -40 -14 -139 -1 -173 12 -33 43 -34 58 -1 15 31 16
144 2 179 -14 37 -45 34 -59 -5z"/>
<path d="M4220 8435 c0 -18 5 -25 20 -25 15 0 20 7 20 25 0 18 -5 25 -20 25
-15 0 -20 -7 -20 -25z"/>
<path d="M5280 8435 c0 -20 5 -25 25 -25 20 0 25 5 25 25 0 20 -5 25 -25 25
-20 0 -25 -5 -25 -25z"/>
<path d="M5578 8448 c8 -8 12 -51 12 -128 0 -77 -4 -120 -12 -128 -9 -9 -1
-12 37 -12 38 0 46 3 37 12 -17 17 -16 78 2 78 19 0 56 -47 56 -71 0 -15 8
-19 40 -19 l41 0 -41 53 c-22 30 -40 58 -40 62 0 5 17 26 37 47 l37 38 -47 0
c-44 0 -46 -1 -35 -20 10 -16 9 -23 -12 -45 -42 -44 -50 -34 -50 60 l0 85 -37
0 c-29 0 -34 -3 -25 -12z"/>
<path d="M6370 8435 c0 -18 5 -25 20 -25 15 0 20 7 20 25 0 18 -5 25 -20 25
-15 0 -20 -7 -20 -25z"/>
<path d="M7200 8451 c-25 -7 -80 -91 -60 -91 15 0 12 -154 -2 -168 -9 -9 -1
-12 37 -12 38 0 46 3 37 12 -7 7 -12 43 -12 90 0 63 3 78 15 78 8 0 15 5 15
10 0 6 -7 10 -15 10 -10 0 -15 10 -15 30 0 23 4 30 20 30 11 0 20 -4 20 -10 0
-5 5 -10 10 -10 6 0 10 9 10 20 0 21 -14 24 -60 11z"/>
<path d="M8380 8453 c-26 -10 -50 -35 -50 -54 0 -10 -8 -23 -17 -28 -17 -10
-17 -10 0 -11 14 0 17 -10 17 -71 0 -39 -5 -79 -10 -90 -10 -17 -7 -19 30 -19
38 0 52 11 30 25 -5 3 -10 40 -10 81 0 67 2 74 20 74 11 0 20 5 20 10 0 6 -9
10 -20 10 -20 0 -25 15 -14 44 7 17 44 22 44 6 0 -5 5 -10 10 -10 6 0 10 9 10
20 0 20 -25 26 -60 13z"/>
<path d="M10538 8448 c17 -17 17 -239 0 -256 -9 -9 -2 -12 31 -12 38 0 42 2
35 18 -5 9 -10 72 -12 140 l-3 122 -32 0 c-24 0 -28 -3 -19 -12z"/>
<path d="M3988 8438 c17 -17 17 -229 0 -246 -9 -9 -1 -12 37 -12 38 0 46 3 37
12 -7 7 -12 34 -12 60 0 44 2 48 25 48 13 0 29 -8 34 -17 8 -14 10 -8 10 27 0
35 -2 41 -10 28 -5 -10 -21 -18 -34 -18 -24 0 -25 3 -25 55 l0 55 35 0 c24 0
39 -6 47 -20 18 -28 28 -25 28 10 l0 30 -92 0 c-72 0 -89 -3 -80 -12z"/>
<path d="M10676 8393 c12 -137 28 -165 39 -65 3 31 8 72 11 90 5 30 3 32 -25
32 l-30 0 5 -57z"/>
<path d="M4714 8405 c-3 -14 -14 -30 -23 -35 -15 -9 -14 -9 2 -10 15 0 17 -10
17 -74 0 -86 15 -112 59 -101 38 9 50 25 19 25 -32 0 -38 15 -38 91 0 59 0 59
30 59 17 0 30 5 30 10 0 6 -13 10 -30 10 -25 0 -30 4 -30 25 0 33 -28 33 -36
0z"/>
<path d="M6230 8415 c0 -8 -9 -24 -20 -35 -16 -16 -17 -20 -5 -20 12 0 15 -15
15 -75 0 -69 2 -76 25 -91 22 -15 29 -15 53 -3 l27 13 -26 4 c-31 4 -39 23
-39 100 0 51 0 52 30 52 17 0 30 5 30 10 0 6 -13 10 -30 10 -25 0 -30 4 -30
25 0 16 -6 25 -15 25 -8 0 -15 -7 -15 -15z"/>
<path d="M4210 8361 c5 -11 10 -47 10 -81 0 -34 -5 -70 -10 -81 -10 -17 -7
-19 30 -19 37 0 40 2 30 19 -5 11 -10 56 -10 100 l0 81 -30 0 c-27 0 -30 -2
-20 -19z"/>
<path d="M4328 8368 c16 -16 16 -160 0 -176 -9 -9 -1 -12 36 -12 41 0 47 2 37
14 -7 9 -11 41 -9 83 3 62 5 68 26 71 13 2 25 -3 28 -12 10 -26 24 -18 24 14
0 34 -9 36 -50 15 -27 -14 -30 -14 -30 0 0 11 -11 15 -37 15 -29 0 -34 -3 -25
-12z"/>
<path d="M4553 8373 c-59 -11 -56 -68 5 -101 31 -18 42 -30 42 -48 0 -20 -5
-24 -29 -24 -18 0 -34 8 -44 23 l-16 22 0 -26 c-1 -23 4 -28 32 -33 47 -9 96
10 103 40 7 28 -7 49 -50 71 -36 18 -46 31 -39 50 7 18 59 17 67 -2 8 -21 26
-19 26 4 0 26 -38 36 -97 24z"/>
<path d="M5028 8368 c17 -17 17 -239 0 -256 -9 -9 -1 -12 38 -11 27 0 43 3 37
6 -7 2 -13 21 -13 42 0 36 1 36 39 36 69 0 102 56 81 137 -14 51 -45 66 -88
44 -38 -20 -46 -20 -38 -1 4 12 -3 15 -31 15 -29 0 -34 -3 -25 -12z m136 -60
c6 -23 6 -50 0 -70 -8 -28 -14 -33 -39 -33 -30 0 -30 1 -33 59 -4 76 1 88 35
84 23 -2 30 -10 37 -40z"/>
<path d="M5268 8368 c7 -7 12 -42 12 -88 0 -46 -5 -81 -12 -88 -9 -9 -1 -12
37 -12 38 0 46 3 37 12 -8 8 -12 45 -12 100 l0 88 -37 0 c-29 0 -34 -3 -25
-12z"/>
<path d="M5455 8373 c-73 -18 -90 -145 -23 -179 32 -17 79 -12 98 11 10 12 5
13 -26 8 -29 -5 -40 -2 -50 12 -16 22 -18 88 -4 116 14 25 47 25 55 -1 9 -28
35 -25 35 4 0 31 -32 42 -85 29z"/>
<path d="M5948 8368 c-27 -7 -38 -15 -38 -29 0 -26 26 -24 33 2 4 16 12 20 34
17 23 -2 29 -8 31 -35 3 -28 0 -33 -25 -38 -51 -11 -78 -29 -81 -58 -5 -39 33
-55 76 -33 38 20 42 20 42 1 0 -10 10 -15 32 -15 25 0 29 3 20 12 -7 7 -12 40
-12 80 0 55 -4 72 -20 88 -22 22 -36 23 -92 8z m60 -125 c-2 -22 -9 -29 -31
-31 -18 -2 -29 2 -33 12 -9 22 14 46 43 46 21 0 24 -4 21 -27z"/>
<path d="M6358 8368 c15 -15 16 -142 2 -169 -10 -17 -7 -19 30 -19 37 0 40 2
30 19 -5 11 -10 56 -10 100 l0 81 -32 0 c-25 0 -29 -3 -20 -12z"/>
<path d="M6478 8368 c7 -7 12 -42 12 -88 0 -46 -5 -81 -12 -88 -9 -9 -1 -12
37 -12 38 0 46 3 37 12 -7 7 -12 39 -12 73 0 34 5 66 12 73 17 17 45 15 52 -4
11 -28 6 -130 -6 -142 -9 -9 -3 -12 30 -12 40 0 41 1 32 26 -13 33 -13 100 0
125 26 49 70 7 70 -66 0 -19 -4 -45 -10 -59 -9 -25 -8 -26 32 -26 33 0 39 3
30 12 -7 7 -12 41 -12 84 0 98 -22 121 -83 89 -25 -13 -31 -13 -53 2 -21 14
-28 14 -52 2 -15 -7 -30 -15 -34 -17 -5 -2 -8 3 -8 12 0 12 -10 16 -37 16 -29
0 -34 -3 -25 -12z"/>
<path d="M6884 8366 c-55 -24 -68 -121 -22 -163 29 -26 92 -23 120 5 12 12 17
22 11 22 -7 0 -15 -4 -18 -10 -11 -18 -73 -12 -85 9 -22 42 -14 51 50 51 57 0
60 1 60 24 0 54 -60 87 -116 62z m66 -32 c14 -35 15 -34 -30 -34 -41 0 -47 8
-30 41 15 28 49 24 60 -7z"/>
<path d="M7268 8368 c7 -7 12 -42 12 -88 0 -46 -5 -81 -12 -88 -9 -9 -1 -12
36 -12 41 0 47 2 37 14 -7 9 -11 41 -9 82 3 58 6 69 22 72 10 2 23 -3 28 -12
14 -25 28 -19 28 14 0 34 -11 37 -54 15 -35 -19 -37 -19 -30 0 5 12 -2 15 -32
15 -30 0 -35 -3 -26 -12z"/>
<path d="M7483 8369 c-23 -7 -33 -16 -33 -29 0 -26 16 -26 30 0 13 24 55 27
64 4 13 -34 6 -54 -21 -60 -78 -16 -102 -38 -83 -74 15 -27 47 -34 75 -16 30
20 35 20 35 1 0 -10 10 -15 30 -15 27 0 30 2 20 19 -5 11 -10 52 -10 91 0 67
-1 71 -26 80 -29 12 -38 11 -81 -1z m67 -117 c0 -25 -19 -42 -47 -42 -25 0
-32 27 -11 48 19 19 58 15 58 -6z"/>
<path d="M7658 8368 c7 -7 12 -42 12 -88 0 -46 -5 -81 -12 -88 -9 -9 -1 -12
37 -12 38 0 46 3 37 12 -7 7 -12 39 -12 73 0 34 5 66 12 73 17 17 45 15 52 -4
11 -28 6 -130 -6 -142 -9 -9 -3 -12 30 -12 40 0 41 1 32 26 -13 33 -13 100 0
125 26 49 70 7 70 -66 0 -19 -4 -45 -10 -59 -9 -25 -8 -26 32 -26 33 0 39 3
30 12 -7 7 -12 41 -12 84 0 98 -22 121 -83 89 -25 -13 -31 -13 -53 2 -21 14
-28 14 -52 2 -15 -7 -30 -15 -34 -17 -5 -2 -8 3 -8 12 0 12 -10 16 -37 16 -29
0 -34 -3 -25 -12z"/>
<path d="M8064 8370 c-73 -30 -72 -156 2 -180 25 -9 40 -8 68 4 20 8 36 20 36
26 0 7 -6 8 -19 0 -46 -24 -91 -6 -91 37 0 21 4 23 61 23 l62 0 -7 32 c-4 18
-12 38 -19 45 -17 17 -67 24 -93 13z m64 -42 c3 -26 1 -28 -32 -28 -28 0 -36
4 -36 18 0 48 63 56 68 10z"/>
<path d="M8500 8372 c-53 -16 -74 -118 -33 -164 32 -36 121 -29 143 12 16 31
12 105 -7 129 -20 23 -65 33 -103 23z m71 -51 c8 -26 8 -52 2 -77 -7 -32 -13
-40 -36 -42 -21 -3 -29 2 -37 23 -24 62 -5 135 34 135 21 0 27 -7 37 -39z"/>
<path d="M8680 8361 c5 -11 10 -47 10 -81 0 -34 -5 -70 -10 -81 -10 -17 -7
-19 30 -19 37 0 40 2 30 19 -5 11 -10 41 -10 66 0 25 5 55 10 66 13 23 38 25
46 4 11 -27 34 -17 34 15 0 34 -11 37 -54 15 -35 -18 -36 -18 -36 0 0 10 -10
15 -30 15 -27 0 -30 -2 -20 -19z"/>
<path d="M8937 8368 c6 -7 24 -55 41 -107 24 -70 29 -98 21 -112 -10 -20 -49
-27 -49 -9 0 6 -4 10 -10 10 -16 0 -12 -40 5 -46 28 -11 67 26 93 90 15 33 41
89 58 124 l31 62 -35 0 c-30 0 -33 -2 -21 -16 10 -13 10 -25 -6 -70 -10 -30
-22 -54 -26 -54 -4 0 -15 23 -25 52 -13 40 -14 55 -5 70 10 16 7 18 -35 18
-36 0 -44 -3 -37 -12z"/>
<path d="M9200 8372 c-53 -16 -74 -118 -33 -164 32 -36 121 -29 143 12 16 31
12 105 -7 129 -20 23 -65 33 -103 23z m71 -51 c8 -26 8 -52 2 -77 -7 -32 -13
-40 -36 -42 -21 -3 -29 2 -37 23 -24 62 -5 135 34 135 21 0 27 -7 37 -39z"/>
<path d="M9368 8368 c7 -7 12 -38 12 -69 0 -100 32 -139 85 -105 30 20 35 20
35 1 0 -11 11 -15 37 -15 29 0 34 3 25 12 -8 8 -12 45 -12 100 l0 88 -36 0
c-30 0 -34 -2 -25 -14 7 -9 11 -39 9 -77 -3 -65 -19 -88 -52 -76 -13 5 -16 22
-16 87 l0 80 -37 0 c-29 0 -34 -3 -25 -12z"/>
<path d="M9620 8361 c5 -11 10 -47 10 -81 0 -34 -5 -70 -10 -81 -10 -17 -7
-19 30 -19 37 0 40 2 30 19 -5 11 -10 41 -10 66 0 25 5 55 10 66 13 23 38 25
46 4 11 -27 34 -17 34 15 0 34 -11 37 -54 15 -35 -18 -36 -18 -36 0 0 10 -10
15 -30 15 -27 0 -30 -2 -20 -19z"/>
<path d="M9922 8370 c-12 -5 -28 -21 -34 -36 -10 -22 -9 -31 5 -56 16 -28 16
-32 1 -49 -11 -13 -13 -22 -6 -35 8 -14 6 -21 -6 -30 -40 -30 29 -70 103 -59
110 16 95 105 -18 105 -41 0 -48 3 -45 18 2 10 11 16 21 14 10 -2 34 2 53 8
36 12 48 35 42 86 -2 19 1 28 10 27 6 -2 12 2 12 7 0 12 -107 12 -138 0z m69
-37 c14 -38 -3 -75 -34 -71 -17 2 -23 11 -25 36 -4 45 3 62 28 62 13 0 24 -10
31 -27z m26 -179 c8 -21 -14 -34 -59 -34 -39 0 -53 12 -44 35 8 22 95 20 103
-1z"/>
<path d="M10144 8370 c-73 -29 -72 -156 1 -180 68 -22 125 20 125 92 0 52 -13
74 -51 87 -37 13 -46 13 -75 1z m64 -22 c12 -12 17 -104 6 -132 -9 -22 -51
-20 -64 3 -14 27 -13 114 2 129 7 7 19 12 28 12 9 0 21 -5 28 -12z"/>
<path d="M10360 8367 c-19 -7 -36 -20 -38 -29 -5 -25 20 -23 36 3 18 29 54 21
66 -14 12 -33 3 -42 -55 -51 -58 -9 -77 -54 -34 -82 22 -14 27 -14 56 0 39 20
39 20 39 1 0 -10 10 -15 32 -15 25 0 29 3 20 12 -7 7 -12 41 -12 84 0 64 -3
75 -22 88 -26 19 -41 19 -88 3z m70 -108 c0 -25 -22 -49 -45 -49 -20 0 -25 5
-25 24 0 13 6 27 13 29 22 10 57 7 57 -4z"/>
<path d="M4850 8197 c0 -24 -5 -48 -12 -55 -7 -7 -8 -12 -2 -12 22 0 54 47 54
78 0 25 -4 32 -20 32 -17 0 -20 -7 -20 -43z"/>
<path d="M10680 8210 c0 -23 4 -30 20 -30 16 0 20 7 20 30 0 23 -4 30 -20 30
-16 0 -20 -7 -20 -30z"/>
<path d="M2080 6075 l0 -1585 5280 0 5280 0 0 1585 0 1585 -5280 0 -5280 0 0
-1585z m2523 1292 c-4 -6 0 -8 10 -4 10 4 16 2 14 -5 -1 -6 4 -13 12 -16 9 -3
11 0 6 9 -5 8 -6 12 -2 9 3 -3 6 -9 7 -15 2 -16 42 -55 51 -50 4 3 11 0 15 -6
5 -8 3 -9 -6 -4 -8 5 -11 3 -8 -6 3 -8 10 -13 16 -12 7 2 9 -4 5 -14 -4 -10
-2 -14 4 -10 7 4 10 -31 10 -103 0 -72 -3 -107 -10 -103 -6 4 -8 0 -4 -10 4
-10 2 -16 -5 -14 -6 1 -13 -4 -16 -12 -3 -9 0 -11 9 -6 8 5 11 5 7 1 -3 -4 -9
-6 -11 -4 -9 5 -57 -44 -52 -53 3 -4 0 -11 -6 -15 -8 -5 -9 -3 -4 6 5 8 3 11
-6 8 -8 -3 -13 -10 -12 -16 2 -7 -4 -9 -14 -5 -10 4 -14 2 -10 -4 4 -7 -31
-10 -103 -10 -72 0 -107 3 -103 10 4 6 0 8 -10 4 -10 -4 -16 -2 -14 5 1 6 -4
13 -12 16 -9 3 -11 0 -6 -9 5 -8 5 -11 1 -7 -4 3 -8 10 -7 15 0 13 -41 53 -50
48 -4 -3 -11 0 -15 6 -5 8 -3 9 6 4 8 -5 11 -3 8 6 -3 8 -10 13 -16 12 -7 -2
-9 4 -5 14 4 10 2 14 -4 10 -7 -4 -10 31 -10 103 0 72 3 107 10 103 6 -4 8 0
4 10 -4 10 -2 16 5 14 6 -1 13 4 16 12 3 9 0 11 -8 6 -9 -5 -11 -4 -6 4 4 6
11 9 15 6 10 -6 53 39 45 47 -3 3 0 9 7 14 8 5 10 3 4 -6 -5 -8 -3 -11 6 -8 8
3 13 10 12 16 -2 7 4 9 14 5 10 -4 14 -2 10 4 -4 7 31 10 103 10 72 0 107 -3
103 -10z m1723 -29 c22 -10 28 -10 32 0 2 6 10 12 18 12 10 0 14 -15 14 -60 0
-69 -16 -79 -40 -27 -9 19 -30 39 -53 50 -35 18 -39 18 -62 3 -50 -33 -32 -59
85 -126 86 -48 110 -103 75 -170 -28 -54 -108 -75 -184 -49 -24 9 -35 9 -44 0
-22 -22 -27 -10 -27 59 0 39 3 70 8 70 4 0 16 -19 27 -42 27 -56 82 -85 122
-66 34 16 41 52 17 79 -10 11 -44 34 -77 51 -32 17 -67 43 -78 56 -36 46 -19
130 32 158 30 17 100 18 135 2z m234 -70 c0 -56 3 -69 12 -60 20 20 85 15 108
-8 17 -17 20 -33 20 -111 0 -76 3 -94 18 -105 14 -11 -6 -13 -132 -14 -117 0
-147 3 -138 12 8 8 12 61 12 173 0 112 -4 165 -12 173 -9 9 2 12 50 12 l62 0
0 -72z m1440 22 c0 -38 -4 -50 -15 -50 -8 0 -15 6 -15 14 0 22 -33 55 -62 62
l-28 6 0 -165 0 -165 28 -10 c21 -8 2 -10 -83 -10 -85 0 -104 2 -82 10 l27 10
0 165 0 165 -27 -7 c-36 -9 -63 -33 -63 -57 0 -10 -7 -18 -15 -18 -11 0 -15
12 -15 50 l0 50 175 0 175 0 0 -50z m-610 -35 c0 -43 1 -45 30 -45 20 0 30 -5
30 -15 0 -10 -10 -15 -30 -15 l-30 0 0 -77 c0 -87 9 -113 30 -88 15 18 30 20
30 2 0 -28 -40 -57 -80 -57 -57 0 -70 24 -70 132 0 71 -3 88 -15 88 -8 0 -19
-9 -25 -20 -12 -22 -49 -27 -68 -8 -21 21 -36 -8 -40 -81 -4 -63 -2 -70 19
-85 22 -15 20 -16 -61 -16 -73 1 -82 3 -67 14 14 11 17 29 17 106 0 77 -3 95
-17 106 -16 12 -10 13 45 14 37 0 62 -4 62 -11 0 -5 10 -3 22 5 30 21 75 20
87 -1 9 -16 17 -11 63 39 29 31 56 57 61 57 4 1 7 -19 7 -44z m-431 -61 c39
-33 56 -90 41 -143 -16 -59 -59 -91 -124 -91 -43 0 -58 5 -80 25 -49 46 -59
110 -27 174 23 45 50 59 113 60 36 1 53 -5 77 -25z m1192 16 c22 -12 49 -61
49 -90 0 -18 -6 -20 -71 -20 l-71 0 6 -27 c14 -57 86 -90 103 -47 3 8 11 14
19 14 24 0 15 -27 -17 -54 -45 -38 -120 -37 -159 2 -79 80 -26 232 81 232 22
0 49 -5 60 -10z m305 -15 c4 -15 1 -32 -6 -40 -16 -20 -57 -19 -68 1 -15 28
-34 -10 -40 -82 -5 -62 -3 -68 19 -85 24 -18 24 -19 -61 -18 -73 0 -82 2 -67
13 14 11 17 29 17 106 0 77 -3 95 -17 106 -16 12 -10 13 45 14 37 0 62 -4 62
-11 0 -5 10 -3 22 5 12 9 37 16 55 16 26 0 34 -5 39 -25z m266 6 c12 -19 12
-19 36 0 30 23 89 25 114 2 15 -13 18 -31 18 -102 0 -62 4 -93 16 -109 l15
-22 -147 0 c-115 0 -145 3 -136 12 14 14 17 184 4 192 -5 3 -18 -2 -30 -10
-19 -13 -22 -25 -22 -86 0 -52 4 -76 17 -90 15 -17 13 -18 -63 -18 -68 1 -77
3 -61 14 14 11 17 29 17 106 0 77 -3 95 -17 106 -16 12 -10 13 45 14 42 0 62
-4 62 -12 0 -8 6 -6 17 5 25 25 99 23 115 -2z m-1092 -106 c0 -25 -1 -25 -85
-25 -84 0 -85 0 -85 25 0 25 1 25 85 25 84 0 85 0 85 -25z m-3027 -728 c-4 -6
0 -8 10 -4 10 4 16 2 14 -5 -1 -6 4 -13 12 -16 9 -3 11 0 6 9 -5 8 -6 12 -2 9
3 -3 6 -9 7 -15 2 -16 42 -55 51 -50 4 3 11 0 15 -6 5 -8 3 -9 -6 -4 -8 5 -11
3 -8 -6 3 -8 10 -13 16 -12 7 2 9 -4 5 -14 -4 -10 -2 -14 4 -10 7 4 10 -31 10
-103 0 -72 -3 -107 -10 -103 -6 4 -8 0 -4 -10 4 -10 2 -16 -5 -14 -6 1 -13 -4
-16 -12 -3 -9 0 -11 9 -6 8 5 11 5 7 1 -3 -4 -9 -6 -11 -4 -9 5 -57 -44 -52
-53 3 -4 0 -11 -6 -15 -8 -5 -9 -3 -4 6 5 8 3 11 -6 8 -8 -3 -13 -10 -12 -16
2 -7 -4 -9 -14 -5 -10 4 -14 2 -10 -4 4 -7 -31 -10 -103 -10 -72 0 -107 3
-103 10 4 6 0 8 -10 4 -10 -4 -16 -2 -14 5 1 6 -4 13 -12 16 -9 3 -11 0 -6 -9
5 -8 5 -11 1 -7 -4 3 -8 10 -7 15 0 13 -41 53 -50 48 -4 -3 -11 0 -15 6 -5 8
-3 9 6 4 8 -5 11 -3 8 6 -3 8 -10 13 -16 12 -7 -2 -9 4 -5 14 4 10 2 14 -4 10
-7 -4 -10 31 -10 103 0 72 3 107 10 103 6 -4 8 0 4 10 -4 10 -2 16 5 14 6 -1
13 4 16 12 3 9 0 11 -8 6 -9 -5 -11 -4 -6 4 4 6 11 9 15 6 10 -6 53 39 45 47
-3 3 0 9 7 14 8 5 10 3 4 -6 -5 -8 -3 -11 6 -8 8 3 13 10 12 16 -2 7 4 9 14 5
10 -4 14 -2 10 4 -4 7 31 10 103 10 72 0 107 -3 103 -10z m2162 -57 c0 -34 -1
-35 -40 -35 -34 0 -40 3 -43 23 -6 42 5 53 45 50 36 -3 38 -5 38 -38z m-435
-76 c25 -58 47 -107 51 -109 3 -3 25 45 49 105 l43 110 86 -1 c70 0 81 -2 59
-11 l-28 -10 0 -163 0 -163 28 -10 c21 -8 2 -10 -83 -10 -85 0 -104 2 -82 10
l27 10 0 131 -1 132 -53 -125 c-29 -69 -55 -133 -59 -142 -14 -39 -35 -13 -91
115 -32 72 -60 134 -62 136 -2 2 -4 -52 -4 -120 l0 -125 28 -11 c23 -9 17 -11
-48 -12 -72 0 -74 0 -47 15 l27 15 0 158 0 159 -27 10 c-23 9 -12 11 58 11
l85 1 44 -106z m740 -58 c0 -133 3 -166 15 -176 25 -21 17 -27 -41 -35 -40 -5
-59 -3 -64 5 -5 9 -9 9 -14 1 -4 -6 -27 -11 -51 -11 -36 0 -48 5 -69 30 -48
58 -46 151 5 202 26 27 35 30 79 26 l50 -3 0 51 c0 43 -4 53 -22 62 -19 9 -11
11 45 11 l67 1 0 -164z m590 114 c0 -59 -20 -68 -40 -19 -7 17 -24 35 -37 40
-53 20 -53 21 -53 -151 l0 -161 33 -14 c30 -13 26 -14 -78 -14 -95 -1 -107 1
-85 12 25 13 25 13 28 176 l3 163 -28 -7 c-33 -8 -60 -30 -68 -56 -12 -36 -25
-19 -25 31 l0 50 175 0 175 0 0 -50z m152 -81 c20 -11 48 -65 48 -94 0 -12
-14 -15 -70 -15 -77 0 -87 -11 -54 -58 26 -38 49 -44 77 -22 51 40 65 16 18
-31 -25 -24 -38 -29 -78 -29 -58 0 -90 19 -109 66 -27 66 -12 131 42 173 29
23 92 28 126 10z m298 -9 c22 -42 -34 -82 -68 -48 -21 21 -36 -8 -40 -81 -4
-63 -2 -70 19 -85 22 -15 20 -16 -61 -16 -73 1 -82 3 -67 14 14 11 17 29 17
106 0 77 -3 95 -17 106 -16 12 -10 13 45 14 37 0 62 -4 62 -11 0 -5 10 -3 22
5 32 23 75 20 88 -4z m265 4 c14 -15 18 -15 40 0 13 9 42 16 64 16 59 0 71
-23 71 -134 0 -73 3 -91 18 -102 14 -11 -19 -13 -212 -14 -221 0 -229 1 -213
18 25 27 24 178 0 204 -17 19 -15 19 55 17 40 -1 75 1 79 4 13 13 82 7 98 -9z
m-1605 -100 c0 -90 3 -109 18 -120 15 -11 6 -13 -62 -14 -76 0 -78 1 -63 18
13 14 17 38 17 102 0 64 -4 88 -17 102 -15 17 -14 18 45 18 l62 0 0 -106z
m520 -9 c0 -25 -1 -25 -85 -25 -84 0 -85 0 -85 25 0 25 1 25 85 25 84 0 85 0
85 -25z m-2687 -728 c-4 -6 0 -8 10 -4 10 4 16 2 14 -5 -1 -6 4 -13 12 -16 9
-3 11 0 6 9 -5 8 -6 12 -2 9 3 -3 6 -9 7 -15 2 -16 42 -55 51 -50 4 3 11 0 15
-6 5 -8 3 -9 -6 -4 -8 5 -11 3 -8 -6 3 -8 10 -13 16 -12 7 2 9 -4 5 -14 -4
-10 -2 -14 4 -10 7 4 10 -31 10 -103 0 -72 -3 -107 -10 -103 -6 4 -8 0 -4 -10
4 -10 2 -16 -5 -14 -6 1 -13 -4 -16 -12 -3 -9 0 -11 9 -6 8 5 11 5 7 1 -3 -4
-9 -6 -11 -4 -9 5 -57 -44 -52 -53 3 -4 0 -11 -6 -15 -8 -5 -9 -3 -4 6 5 8 3
11 -6 8 -8 -3 -13 -10 -12 -16 2 -7 -4 -9 -14 -5 -10 4 -14 2 -10 -4 4 -7 -31
-10 -103 -10 -72 0 -107 3 -103 10 4 6 0 8 -10 4 -10 -4 -16 -2 -14 5 1 6 -4
13 -12 16 -9 3 -11 0 -6 -9 5 -8 5 -11 1 -7 -4 3 -8 10 -7 15 0 13 -41 53 -50
48 -4 -3 -11 0 -15 6 -5 8 -3 9 6 4 8 -5 11 -3 8 6 -3 8 -10 13 -16 12 -7 -2
-9 4 -5 14 4 10 2 14 -4 10 -7 -4 -10 31 -10 103 0 72 3 107 10 103 6 -4 8 0
4 10 -4 10 -2 16 5 14 6 -1 13 4 16 12 3 9 0 11 -8 6 -9 -5 -11 -4 -6 4 4 6
11 9 15 6 10 -6 53 39 45 47 -3 3 0 9 7 14 8 5 10 3 4 -6 -5 -8 -3 -11 6 -8 8
3 13 10 12 16 -2 7 4 9 14 5 10 -4 14 -2 10 4 -4 7 31 10 103 10 72 0 107 -3
103 -10z m1707 -38 c-13 -6 -28 -15 -32 -22 -12 -18 -10 -275 2 -298 12 -22
50 -25 98 -8 22 7 37 24 52 55 28 57 47 58 42 2 -7 -96 10 -88 -185 -88 -145
0 -168 2 -147 13 l25 13 0 159 0 159 -25 13 c-22 11 -10 13 85 12 83 0 104 -3
85 -10z m1600 -39 c0 -59 -20 -68 -40 -19 -7 17 -24 35 -37 40 -53 20 -53 21
-53 -151 l0 -161 33 -14 c30 -13 26 -14 -78 -14 -95 -1 -107 1 -85 12 25 13
25 13 28 176 l3 163 -28 -7 c-33 -8 -60 -30 -68 -56 -12 -36 -25 -19 -25 31
l0 50 175 0 175 0 0 -50z m-1201 -96 c39 -33 56 -90 41 -143 -16 -59 -59 -91
-124 -91 -43 0 -58 5 -80 25 -49 46 -59 110 -27 174 23 45 50 59 113 60 36 1
53 -5 77 -25z m313 9 c15 -13 18 -31 18 -102 0 -62 4 -93 16 -109 l15 -22
-147 0 c-142 0 -147 1 -131 18 25 27 24 178 0 204 -17 19 -15 19 55 17 40 -1
75 1 79 4 13 13 77 7 95 -10z m261 11 c55 -5 77 -11 77 -20 0 -8 -11 -14 -25
-14 -22 0 -24 -3 -15 -19 16 -31 12 -58 -14 -88 -19 -21 -35 -28 -77 -33 -46
-4 -54 -8 -54 -25 0 -18 8 -21 72 -25 89 -6 108 -22 104 -83 0 -9 -16 -26 -33
-37 -42 -26 -172 -28 -206 -4 -26 18 -28 39 -6 52 14 8 14 13 4 31 -15 28 -6
67 19 83 18 11 18 13 -10 39 -39 37 -39 80 0 120 32 32 41 33 164 23z m779 -5
c20 -11 48 -65 48 -94 0 -12 -14 -15 -70 -15 -77 0 -87 -11 -54 -58 26 -38 49
-44 77 -22 51 40 65 16 18 -31 -25 -24 -38 -29 -78 -29 -58 0 -90 19 -109 66
-27 66 -12 131 42 173 29 23 92 28 126 10z m293 -29 c0 -29 -4 -36 -23 -38
-13 -2 -30 2 -39 9 -25 22 -43 -15 -43 -89 0 -50 4 -68 18 -78 15 -11 6 -13
-62 -14 -76 0 -78 1 -63 18 13 14 17 38 17 102 0 64 -4 88 -17 102 -15 17 -14
18 45 18 42 0 62 -4 62 -12 0 -8 7 -6 18 5 11 12 29 17 52 15 33 -3 35 -5 35
-38z m270 24 c14 -15 18 -15 40 0 13 9 42 16 64 16 59 0 71 -23 71 -134 0 -73
3 -91 18 -102 14 -11 -19 -13 -212 -14 -221 0 -229 1 -213 18 25 27 24 178 0
204 -17 19 -15 19 55 17 40 -1 75 1 79 4 13 13 82 7 98 -9z m-1085 -109 c0
-25 -1 -25 -90 -25 -89 0 -90 0 -90 25 0 25 1 25 90 25 89 0 90 0 90 -25z"/>
<path d="M6567 7163 c-11 -11 -8 -171 3 -178 6 -4 17 -1 25 5 11 9 15 35 15
96 0 75 -2 84 -18 84 -10 0 -22 -3 -25 -7z"/>
<path d="M6862 7188 c-18 -18 -16 -182 2 -197 11 -9 18 -8 30 4 23 23 23 167
0 189 -19 19 -17 19 -32 4z"/>
<path d="M8077 7182 c-10 -10 -17 -28 -17 -40 0 -18 6 -22 30 -22 26 0 30 3
30 29 0 40 -22 56 -43 33z"/>
<path d="M8762 7164 c-19 -13 -22 -25 -22 -83 0 -74 15 -106 43 -95 14 5 17
20 17 94 0 49 -4 91 -8 94 -5 3 -18 -2 -30 -10z"/>
<path d="M6920 6180 c-5 -10 -10 -50 -10 -88 0 -54 4 -72 18 -86 18 -15 20
-15 35 2 19 21 24 130 7 161 -14 28 -38 33 -50 11z"/>
<path d="M7737 6185 c-9 -9 -17 -27 -17 -41 0 -20 5 -24 30 -24 25 0 30 4 30
23 0 13 -6 31 -13 41 -13 17 -14 17 -30 1z"/>
<path d="M8267 6162 c-24 -26 -24 -167 -1 -176 32 -12 44 13 44 94 0 87 -14
114 -43 82z"/>
<path d="M8412 6158 c-7 -7 -12 -42 -12 -89 0 -62 3 -78 16 -83 33 -13 44 13
44 100 0 74 -2 84 -18 84 -10 0 -23 -5 -30 -12z"/>
<path d="M6612 5188 c-18 -18 -16 -182 2 -197 11 -9 18 -8 30 4 23 23 23 167
0 189 -19 19 -17 19 -32 4z"/>
<path d="M6916 5161 c-12 -13 -16 -37 -16 -93 0 -76 7 -91 38 -81 14 5 18 178
3 187 -4 3 -16 -3 -25 -13z"/>
<path d="M7194 5175 c-29 -45 -2 -132 33 -103 18 15 17 102 -1 117 -12 10 -18
7 -32 -14z"/>
<path d="M7167 4913 c-27 -7 -15 -26 21 -35 35 -9 94 2 99 19 7 19 -70 29
-120 16z"/>
<path d="M7987 5185 c-9 -9 -17 -27 -17 -41 0 -20 5 -24 30 -24 25 0 30 4 30
23 0 13 -6 31 -13 41 -13 17 -14 17 -30 1z"/>
<path d="M8517 5162 c-24 -26 -24 -167 -1 -176 32 -12 44 13 44 94 0 87 -14
114 -43 82z"/>
<path d="M8662 5158 c-7 -7 -12 -42 -12 -89 0 -62 3 -78 16 -83 33 -13 44 13
44 100 0 74 -2 84 -18 84 -10 0 -23 -5 -30 -12z"/>
<path d="M12670 800 l0 -90 88 0 c151 1 192 19 192 88 0 74 -35 92 -181 92
l-99 0 0 -90z"/>
<path d="M13430 692 c-19 -9 -43 -32 -53 -50 -24 -41 -26 -137 -3 -180 47 -91
161 -90 206 2 40 84 13 198 -54 230 -43 20 -53 20 -96 -2z"/>
<path d="M14915 701 c-30 -13 -54 -44 -61 -79 l-6 -32 100 0 c77 0 100 3 98
13 -3 6 -7 25 -10 40 -4 16 -20 36 -39 47 -34 21 -51 23 -82 11z"/>
<path d="M16133 700 c-25 -10 -49 -43 -58 -82 l-7 -28 102 0 102 0 -7 28 c-18
73 -71 106 -132 82z"/>
<path d="M17090 474 c-18 -21 -19 -136 -1 -158 26 -31 41 -1 41 79 0 79 -15
110 -40 79z"/>
<path d="M17250 474 c-18 -21 -19 -136 -1 -158 26 -31 41 -1 41 79 0 79 -15
110 -40 79z"/>
<path d="M17490 461 c-5 -11 -10 -41 -10 -66 0 -51 14 -85 34 -85 8 0 16 10
20 23 8 29 8 111 0 131 -8 22 -31 20 -44 -3z"/>
<path d="M17650 461 c-5 -11 -10 -41 -10 -66 0 -51 14 -85 34 -85 8 0 16 10
20 23 8 29 8 111 0 131 -8 22 -31 20 -44 -3z"/>
</g>
</svg>
